<?xml version="1.0" encoding="UTF-8"?><svg id="a" xmlns="http://www.w3.org/2000/svg" xmlns:xlink="http://www.w3.org/1999/xlink" viewBox="0 0 360 567.333"><defs><style>.x{fill:url(#k);}.y{fill:url(#i);}.z{fill:url(#m);}.aa{fill:url(#g);}.ab{fill:url(#q);}.ac{fill:url(#o);}.ad{fill:url(#s);}.ae{fill:url(#c);}.af{mask:url(#u);}.ag{fill:#f4a22b;}.ah{fill:#fffffa;}.ai{fill:url(#w);fill-opacity:.6;}.aj{fill:url(#b);fill-opacity:.4;}.ak{fill:url(#r);}.ak,.al,.am,.an,.ao,.ap,.aq,.ar{fill-opacity:.2;}.al{fill:url(#d);}.am{fill:url(#n);}.an{fill:url(#l);}.ao{fill:url(#p);}.ap{fill:url(#j);}.aq{fill:url(#h);}.ar{fill:url(#f);}.ar,.as{fill-rule:evenodd;}.at{fill:#66247f;}.au{fill:#fff;}.as{fill:url(#e);}.av{fill:#fff5da;}.aw{opacity:.45;}.ax{fill:none;stroke:url(#t);stroke-opacity:.6;}</style><linearGradient id="b" x1="20.976" y1="871.139" x2="336.007" y2="861.48" gradientTransform="translate(0 1149.93) scale(1 -1)" gradientUnits="userSpaceOnUse"><stop offset="0" stop-color="#fff" stop-opacity=".5"/><stop offset="1" stop-color="#fff" stop-opacity=".2"/></linearGradient><linearGradient id="c" x1="301.237" y1="920.287" x2="301.237" y2="890.748" gradientTransform="translate(0 1149.93) scale(1 -1)" gradientUnits="userSpaceOnUse"><stop offset="0" stop-color="#f2b731"/><stop offset="1" stop-color="#e96821"/></linearGradient><linearGradient id="d" x1="291.473" y1="905.841" x2="310.791" y2="905.289" gradientTransform="translate(0 1149.93) scale(1 -1)" gradientUnits="userSpaceOnUse"><stop offset="0" stop-color="#f1b530"/><stop offset=".173" stop-color="#c15f1d" stop-opacity=".4"/><stop offset=".488" stop-color="#ec9e2b"/><stop offset=".657" stop-color="#db8e27" stop-opacity=".852"/><stop offset=".877" stop-color="#c5661f" stop-opacity=".6"/><stop offset=".974" stop-color="#de9228"/></linearGradient><linearGradient id="e" x1="277.952" y1="953.764" x2="277.952" y2="889.764" xlink:href="#c"/><linearGradient id="f" x1="249.345" y1="922.869" x2="305.938" y2="920.682" xlink:href="#d"/><linearGradient id="g" x1="60" y1="849.764" x2="60" y2="823.764" xlink:href="#c"/><linearGradient id="h" x1="51.155" y1="837.065" x2="68.655" y2="836.551" xlink:href="#d"/><linearGradient id="i" x1="100" y1="849.764" x2="100" y2="823.764" xlink:href="#c"/><linearGradient id="j" x1="91.155" y1="837.065" x2="108.655" y2="836.551" xlink:href="#d"/><linearGradient id="k" x1="140" y1="849.764" x2="140" y2="823.764" xlink:href="#c"/><linearGradient id="l" x1="131.155" y1="837.065" x2="148.654" y2="836.551" xlink:href="#d"/><linearGradient id="m" x1="180" y1="849.764" x2="180" y2="823.764" xlink:href="#c"/><linearGradient id="n" x1="171.155" y1="837.065" x2="188.654" y2="836.551" xlink:href="#d"/><linearGradient id="o" x1="220" y1="849.764" x2="220" y2="823.764" xlink:href="#c"/><linearGradient id="p" x1="211.155" y1="837.065" x2="228.654" y2="836.551" xlink:href="#d"/><linearGradient id="q" x1="260" y1="855.764" x2="260" y2="823.764" xlink:href="#c"/><linearGradient id="r" x1="249.114" y1="840.135" x2="270.651" y2="839.502" xlink:href="#d"/><linearGradient id="s" x1="287.451" y1="846.031" x2="312.411" y2="827.311" xlink:href="#b"/><linearGradient id="t" x1="287.471" y1="846.058" x2="312.431" y2="827.338" gradientTransform="translate(0 1149.93) scale(1 -1)" gradientUnits="userSpaceOnUse"><stop offset="0" stop-color="#fff" stop-opacity=".6"/><stop offset="1" stop-color="#fff" stop-opacity=".2"/></linearGradient><mask id="u" x="48" y="341.167" width="264" height="30" maskUnits="userSpaceOnUse"><g id="v"><path class="au" d="M48,342.167h264v29H48v-29Z"/></g></mask><linearGradient id="w" x1="178.426" y1="822.091" x2="184.721" y2="764.783" xlink:href="#t"/></defs><path class="at" d="M24,212.167c0-17.673,14.327-32,32-32h248c17.673,0,32,14.327,32,32v143c0,17.673-14.327,32-32,32H56c-17.673,0-32-14.327-32-32v-143Z"/><path class="aj" d="M24,212.167c0-17.673,14.327-32,32-32h248c17.673,0,32,14.327,32,32v143c0,17.673-14.327,32-32,32H56c-17.673,0-32-14.327-32-32v-143Z"/><path class="ah" d="M72.304,218.308c0,1.595-1.183,2.889-2.643,2.889s-2.643-1.293-2.643-2.889,1.183-2.889,2.643-2.889,2.643,1.293,2.643,2.889Z"/><path class="ah" d="M77.442,219.324c0,1.182-.876,2.14-1.958,2.14s-1.958-.958-1.958-2.14.876-2.14,1.958-2.14,1.958.958,1.958,2.14Z"/><path class="ah" d="M81.602,222.133c0,1.108-.822,2.006-1.835,2.006s-1.835-.898-1.835-2.006.822-2.006,1.835-2.006,1.835.898,1.835,2.006Z"/><path class="ah" d="M84,226.572c0,1.019-.756,1.845-1.688,1.845s-1.688-.826-1.688-1.845.756-1.846,1.688-1.846,1.688.826,1.688,1.846Z"/><path class="ah" d="M60.012,214.931c-.063,1.594,1.069,2.941,2.527,3.01,1.458.069,2.691-1.168,2.754-2.762.063-1.594-1.069-2.941-2.527-3.01-1.458-.068-2.691,1.168-2.754,2.762Z"/><path class="ah" d="M54.838,215.706c-.046,1.181.792,2.179,1.872,2.229,1.08.051,1.993-.865,2.04-2.046.046-1.181-.792-2.179-1.872-2.229-1.08-.051-1.993.865-2.04,2.046Z"/><path class="ah" d="M50.572,218.316c-.044,1.107.742,2.043,1.755,2.09,1.013.048,1.869-.811,1.912-1.918s-.742-2.043-1.755-2.09c-1.013-.048-1.869.811-1.912,1.918Z"/><path class="ah" d="M48.002,222.64c-.04,1.018.683,1.879,1.614,1.923.932.044,1.719-.746,1.759-1.765.04-1.018-.683-1.879-1.614-1.923-.932-.044-1.719.746-1.759,1.765Z"/><path class="ah" d="M61.831,240.48c-4.796,2.033-7.561-4.547-8.515-8.211-.372-1.097-1.175-3.932-.832-7.088.343-3.156,4.037-6.954,8.32-6.767,4.282.187,5.016,4.707,2.227,7.943-2.79,3.236-1.664,4.654-.367,6.098,1.297,1.444,3.964,5.991-.832,8.024Z"/><path class="ah" d="M69.579,243.706c4.719,2.239,7.72-4.216,8.806-7.836.412-1.08,1.316-3.878,1.088-7.046-.228-3.168-3.782-7.123-8.068-7.122-4.286.002-5.183,4.486-2.513,7.841,2.67,3.354,1.494,4.722.146,6.109-1.348,1.387-4.178,5.815.541,8.053Z"/><path class="ah" d="M100.432,224.359c-.779,0-1.552-.101-2.32-.304-.757-.213-1.408-.512-1.952-.896l1.024-1.984c.427.309.917.555,1.472.736.565.181,1.136.272,1.712.272.651,0,1.163-.128,1.536-.384s.56-.613.56-1.072c0-.288-.075-.544-.224-.768s-.416-.395-.8-.512c-.373-.117-.901-.176-1.584-.176h-2.864l.576-6.304h6.832v2.08h-5.904l1.344-1.184-.4,4.496-1.344-1.184h2.368c1.109,0,2,.155,2.672.464.683.299,1.179.709,1.488,1.232.309.523.464,1.115.464,1.776s-.165,1.275-.496,1.84c-.331.555-.843,1.008-1.536,1.36-.683.341-1.557.512-2.624.512ZM106.236,226.631l1.056-3.84.352,1.44c-.459,0-.837-.133-1.136-.4-.288-.267-.432-.635-.432-1.104s.149-.843.448-1.12c.299-.277.667-.416,1.104-.416.448,0,.816.144,1.104.432.288.277.432.645.432,1.104,0,.139-.011.277-.032.416-.021.128-.064.288-.128.48-.053.181-.144.416-.272.704l-.912,2.304h-1.584ZM114.924,224.359c-.917,0-1.739-.224-2.464-.672-.725-.459-1.296-1.12-1.712-1.984-.416-.864-.624-1.909-.624-3.136s.208-2.272.624-3.136.987-1.52,1.712-1.968c.725-.459,1.547-.688,2.464-.688.928,0,1.749.229,2.464.688.725.448,1.296,1.104,1.712,1.968s.624,1.909.624,3.136-.208,2.272-.624,3.136c-.416.864-.987,1.525-1.712,1.984-.715.448-1.536.672-2.464.672ZM114.924,222.167c.437,0,.816-.123,1.136-.368.331-.245.587-.635.768-1.168.192-.533.288-1.221.288-2.064s-.096-1.531-.288-2.064c-.181-.533-.437-.923-.768-1.168-.32-.245-.699-.368-1.136-.368-.427,0-.805.123-1.136.368-.32.245-.576.635-.768,1.168-.181.533-.272,1.221-.272,2.064s.091,1.531.272,2.064c.192.533.448.923.768,1.168.331.245.709.368,1.136.368ZM125.783,224.359c-.917,0-1.738-.224-2.464-.672-.725-.459-1.296-1.12-1.712-1.984-.416-.864-.624-1.909-.624-3.136s.208-2.272.624-3.136.987-1.52,1.712-1.968c.726-.459,1.547-.688,2.464-.688.928,0,1.75.229,2.464.688.726.448,1.296,1.104,1.712,1.968s.624,1.909.624,3.136-.208,2.272-.624,3.136c-.416.864-.986,1.525-1.712,1.984-.714.448-1.536.672-2.464.672ZM125.783,222.167c.438,0,.816-.123,1.136-.368.331-.245.587-.635.768-1.168.192-.533.288-1.221.288-2.064s-.096-1.531-.288-2.064c-.181-.533-.437-.923-.768-1.168-.32-.245-.698-.368-1.136-.368-.426,0-.805.123-1.136.368-.32.245-.576.635-.768,1.168-.181.533-.272,1.221-.272,2.064s.091,1.531.272,2.064c.192.533.448.923.768,1.168.331.245.71.368,1.136.368ZM136.643,224.359c-.918,0-1.739-.224-2.464-.672-.726-.459-1.296-1.12-1.712-1.984-.416-.864-.624-1.909-.624-3.136s.208-2.272.624-3.136.986-1.52,1.712-1.968c.725-.459,1.546-.688,2.464-.688.928,0,1.749.229,2.464.688.725.448,1.296,1.104,1.712,1.968s.624,1.909.624,3.136-.208,2.272-.624,3.136c-.416.864-.987,1.525-1.712,1.984-.715.448-1.536.672-2.464.672ZM136.643,222.167c.437,0,.816-.123,1.136-.368.33-.245.586-.635.768-1.168.192-.533.288-1.221.288-2.064s-.096-1.531-.288-2.064c-.182-.533-.438-.923-.768-1.168-.32-.245-.699-.368-1.136-.368-.427,0-.806.123-1.136.368-.32.245-.576.635-.768,1.168-.182.533-.272,1.221-.272,2.064s.09,1.531.272,2.064c.192.533.448.923.768,1.168.33.245.709.368,1.136.368ZM101.008,244.359c-.896,0-1.755-.117-2.576-.352-.821-.245-1.483-.56-1.984-.944l.88-1.952c.48.341,1.045.624,1.696.848.661.213,1.328.32,2,.32.512,0,.923-.048,1.232-.144.32-.107.555-.251.704-.432s.224-.389.224-.624c0-.299-.117-.533-.352-.704-.235-.181-.544-.325-.928-.432-.384-.117-.811-.224-1.28-.32-.459-.107-.923-.235-1.392-.384-.459-.149-.88-.341-1.264-.576-.384-.235-.699-.544-.944-.928-.235-.384-.352-.875-.352-1.472,0-.64.171-1.221.512-1.744.352-.533.875-.955,1.568-1.264.704-.32,1.584-.48,2.64-.48.704,0,1.397.085,2.08.256.683.16,1.285.405,1.808.736l-.8,1.968c-.523-.299-1.045-.517-1.568-.656-.523-.149-1.035-.224-1.536-.224s-.912.059-1.232.176c-.32.117-.549.272-.688.464-.139.181-.208.395-.208.64,0,.288.117.523.352.704.235.171.544.309.928.416.384.107.805.213,1.264.32.469.107.933.229,1.392.368.469.139.896.325,1.28.56.384.235.693.544.928.928.245.384.368.869.368,1.456,0,.629-.176,1.205-.528,1.728-.352.523-.88.944-1.584,1.264-.693.32-1.573.48-2.64.48ZM110.875,244.295c-1.013,0-1.803-.256-2.368-.768-.565-.523-.848-1.296-.848-2.32v-7.552h2.496v7.52c0,.363.096.645.288.848.192.192.453.288.784.288.395,0,.731-.107,1.008-.32l.672,1.76c-.256.181-.565.32-.928.416-.352.085-.72.128-1.104.128ZM106.331,237.671v-1.92h5.968v1.92h-5.968ZM118.315,244.295c-.982,0-1.846-.192-2.592-.576-.736-.384-1.307-.907-1.712-1.568-.405-.672-.608-1.435-.608-2.288,0-.864.197-1.627.592-2.288.405-.672.955-1.195,1.648-1.568.693-.384,1.477-.576,2.352-.576.842,0,1.6.181,2.272.544.682.352,1.221.864,1.616,1.536.394.661.592,1.456.592,2.384,0,.096-.006.208-.016.336-.011.117-.022.229-.032.336h-6.992v-1.456h5.68l-.96.432c0-.448-.091-.837-.272-1.168-.182-.331-.432-.587-.752-.768-.32-.192-.694-.288-1.12-.288s-.806.096-1.136.288c-.32.181-.571.443-.752.784-.182.331-.272.725-.272,1.184v.384c0,.469.101.885.304,1.248.213.352.506.624.88.816.384.181.832.272,1.344.272.458,0,.858-.069,1.2-.208.352-.139.672-.347.96-.624l1.328,1.44c-.395.448-.891.795-1.488,1.04-.598.235-1.286.352-2.064.352ZM129.224,244.295c-.725,0-1.36-.16-1.904-.48s-.97-.805-1.28-1.456c-.298-.661-.448-1.493-.448-2.496,0-1.013.144-1.845.432-2.496.288-.651.704-1.136,1.248-1.456.544-.32,1.195-.48,1.952-.48.811,0,1.536.187,2.176.56.651.363,1.163.875,1.536,1.536.384.661.576,1.44.576,2.336,0,.907-.192,1.691-.576,2.352-.373.661-.885,1.173-1.536,1.536-.64.363-1.365.544-2.176.544ZM124.136,247.271v-11.712h2.384v1.76l-.048,2.56.16,2.544v4.848h-2.496ZM128.792,242.247c.416,0,.784-.096,1.104-.288.331-.192.592-.464.784-.816.203-.363.304-.789.304-1.28,0-.501-.101-.928-.304-1.28-.192-.352-.453-.624-.784-.816-.32-.192-.688-.288-1.104-.288s-.789.096-1.12.288c-.33.192-.592.464-.784.816s-.288.779-.288,1.28c0,.491.096.917.288,1.28.192.352.454.624.784.816.331.192.704.288,1.12.288ZM138.079,244.295c-.736,0-1.445-.085-2.128-.256-.672-.181-1.205-.405-1.6-.672l.832-1.792c.395.245.859.448,1.392.608.544.149,1.078.224,1.6.224.576,0,.982-.069,1.216-.208.246-.139.368-.331.368-.576,0-.203-.096-.352-.288-.448-.181-.107-.426-.187-.736-.24-.309-.053-.65-.107-1.024-.16-.362-.053-.73-.123-1.104-.208-.373-.096-.714-.235-1.024-.416-.309-.181-.56-.427-.752-.736-.181-.309-.272-.709-.272-1.2,0-.544.155-1.024.464-1.44.32-.416.779-.741,1.376-.976.598-.245,1.312-.368,2.144-.368.587,0,1.184.064,1.792.192.608.128,1.115.315,1.52.56l-.832,1.776c-.416-.245-.837-.411-1.264-.496-.416-.096-.821-.144-1.216-.144-.554,0-.96.075-1.216.224-.256.149-.384.341-.384.576,0,.213.091.373.272.48.192.107.443.192.752.256.31.064.646.123,1.008.176.374.043.747.112,1.12.208.374.096.71.235,1.008.416.31.171.56.411.752.72.192.299.288.693.288,1.184,0,.533-.16,1.008-.48,1.424-.32.405-.784.725-1.392.96-.597.235-1.328.352-2.192.352ZM152.071,244.359c-.896,0-1.755-.117-2.576-.352-.822-.245-1.483-.56-1.984-.944l.88-1.952c.48.341,1.045.624,1.696.848.661.213,1.328.32,2,.32.512,0,.922-.048,1.232-.144.32-.107.554-.251.704-.432.149-.181.224-.389.224-.624,0-.299-.118-.533-.352-.704-.235-.181-.544-.325-.928-.432-.384-.117-.811-.224-1.28-.32-.459-.107-.923-.235-1.392-.384-.459-.149-.88-.341-1.264-.576-.384-.235-.699-.544-.944-.928-.235-.384-.352-.875-.352-1.472,0-.64.17-1.221.512-1.744.352-.533.874-.955,1.568-1.264.704-.32,1.584-.48,2.64-.48.704,0,1.397.085,2.08.256.682.16,1.285.405,1.808.736l-.8,1.968c-.523-.299-1.046-.517-1.568-.656-.523-.149-1.035-.224-1.536-.224s-.912.059-1.232.176c-.32.117-.55.272-.688.464-.139.181-.208.395-.208.64,0,.288.117.523.352.704.234.171.544.309.928.416.384.107.805.213,1.264.32.469.107.933.229,1.392.368.469.139.896.325,1.28.56.384.235.693.544.928.928.245.384.368.869.368,1.456,0,.629-.176,1.205-.528,1.728-.352.523-.88.944-1.584,1.264-.694.32-1.574.48-2.64.48ZM161.938,244.295c-1.014,0-1.803-.256-2.368-.768-.566-.523-.848-1.296-.848-2.32v-7.552h2.496v7.52c0,.363.096.645.288.848.192.192.453.288.784.288.394,0,.73-.107,1.008-.32l.672,1.76c-.256.181-.566.32-.928.416-.352.085-.72.128-1.104.128ZM157.394,237.671v-1.92h5.968v1.92h-5.968ZM165.371,244.167v-8.608h2.384v2.432l-.336-.704c.256-.608.666-1.067,1.232-1.376.565-.32,1.253-.48,2.064-.48v2.304c-.107-.011-.203-.016-.288-.016-.086-.011-.176-.016-.272-.016-.683,0-1.238.197-1.664.592-.416.384-.624.987-.624,1.808v4.064h-2.496ZM176.408,244.295c-.981,0-1.845-.192-2.592-.576-.736-.384-1.306-.907-1.712-1.568-.405-.672-.608-1.435-.608-2.288,0-.864.198-1.627.592-2.288.406-.672.955-1.195,1.648-1.568.694-.384,1.478-.576,2.352-.576.843,0,1.6.181,2.272.544.683.352,1.222.864,1.616,1.536.395.661.592,1.456.592,2.384,0,.096-.005.208-.016.336-.01.117-.021.229-.032.336h-6.992v-1.456h5.68l-.96.432c0-.448-.09-.837-.272-1.168-.181-.331-.432-.587-.752-.768-.32-.192-.693-.288-1.12-.288s-.805.096-1.136.288c-.32.181-.57.443-.752.784-.181.331-.272.725-.272,1.184v.384c0,.469.102.885.304,1.248.214.352.507.624.88.816.384.181.832.272,1.344.272.459,0,.859-.069,1.2-.208.352-.139.672-.347.96-.624l1.328,1.44c-.394.448-.89.795-1.488,1.04-.597.235-1.285.352-2.064.352ZM187.276,244.167v-1.68l-.16-.368v-3.008c0-.533-.166-.949-.496-1.248-.32-.299-.816-.448-1.488-.448-.459,0-.912.075-1.36.224-.438.139-.811.331-1.12.576l-.896-1.744c.469-.331,1.034-.587,1.696-.768.661-.181,1.333-.272,2.016-.272,1.312,0,2.33.309,3.056.928.725.619,1.088,1.584,1.088,2.896v4.912h-2.336ZM184.652,244.295c-.672,0-1.248-.112-1.728-.336-.48-.235-.848-.549-1.104-.944-.256-.395-.384-.837-.384-1.328,0-.512.122-.96.368-1.344.256-.384.656-.683,1.2-.896.544-.224,1.253-.336,2.128-.336h2.288v1.456h-2.016c-.587,0-.992.096-1.216.288-.214.192-.32.432-.32.72,0,.32.122.576.368.768.256.181.602.272,1.04.272.416,0,.789-.096,1.12-.288.33-.203.57-.496.72-.88l.384,1.152c-.182.555-.512.976-.992,1.264-.48.288-1.099.432-1.856.432ZM193.935,242.407l.064-3.04,4.016-3.808h2.976l-3.856,3.92-1.296,1.056-1.904,1.872ZM191.871,244.167v-11.872h2.496v11.872h-2.496ZM198.287,244.167l-2.912-3.616,1.568-1.936,4.368,5.552h-3.024Z"/><path class="au" d="M266.844,230.167v-2.1l5.4-5.1c.426-.387.74-.733.94-1.04.2-.307.333-.587.4-.84.08-.253.12-.487.12-.7,0-.56-.194-.987-.58-1.28-.374-.307-.927-.46-1.66-.46-.587,0-1.134.113-1.64.34-.494.227-.914.58-1.26,1.06l-2.36-1.52c.533-.8,1.28-1.433,2.24-1.9.96-.467,2.066-.7,3.32-.7,1.04,0,1.946.173,2.72.52.786.333,1.393.807,1.82,1.42.44.613.66,1.347.66,2.2,0,.453-.06.907-.18,1.36-.107.44-.334.907-.68,1.4-.334.493-.827,1.047-1.48,1.66l-4.48,4.22-.62-1.18h7.9v2.64h-10.58ZM283.3,230.407c-.973,0-1.94-.127-2.9-.38-.96-.267-1.773-.64-2.44-1.12l1.26-2.48c.534.387,1.154.693,1.86.92.707.227,1.42.34,2.14.34.814,0,1.454-.16,1.92-.48.467-.32.7-.76.7-1.32,0-.533-.206-.953-.62-1.26-.413-.307-1.08-.46-2-.46h-1.48v-2.14l3.9-4.42.36,1.16h-7.34v-2.6h9.8v2.1l-3.88,4.42-1.64-.94h.94c1.72,0,3.02.387,3.9,1.16s1.32,1.767,1.32,2.98c0,.787-.206,1.527-.62,2.22-.413.68-1.046,1.233-1.9,1.66-.853.427-1.946.64-3.28.64ZM266.716,239.167v-7h2.95c.747,0,1.403.147,1.97.44.573.293,1.017.703,1.33,1.23.32.527.48,1.137.48,1.83s-.16,1.303-.48,1.83c-.313.527-.757.937-1.33,1.23-.567.293-1.223.44-1.97.44h-2.95ZM267.716,238.297h1.89c.58,0,1.08-.11,1.5-.33.427-.22.757-.527.99-.92.233-.4.35-.86.35-1.38,0-.527-.117-.987-.35-1.38-.233-.393-.563-.7-.99-.92-.42-.22-.92-.33-1.5-.33h-1.89v5.26ZM278.128,239.167v-1.12l-.05-.21v-1.91c0-.407-.12-.72-.36-.94-.234-.227-.587-.34-1.06-.34-.314,0-.62.053-.92.16-.3.1-.554.237-.76.41l-.4-.72c.273-.22.6-.387.98-.5.386-.12.79-.18,1.21-.18.726,0,1.286.177,1.68.53.393.353.59.893.59,1.62v3.2h-.91ZM276.388,239.227c-.394,0-.74-.067-1.04-.2-.294-.133-.52-.317-.68-.55-.16-.24-.24-.51-.24-.81,0-.287.066-.547.2-.78.14-.233.363-.42.67-.56.313-.14.733-.21,1.26-.21h1.68v.69h-1.64c-.48,0-.804.08-.97.24-.167.16-.25.353-.25.58,0,.26.103.47.31.63.206.153.493.23.86.23.36,0,.673-.08.94-.24.273-.16.47-.393.59-.7l.19.66c-.127.313-.35.563-.67.75-.32.18-.724.27-1.21.27ZM280.947,241.167c-.254,0-.5-.043-.74-.13-.24-.08-.447-.2-.62-.36l.41-.72c.133.127.28.223.44.29.16.067.33.1.51.1.233,0,.426-.06.58-.18.153-.12.296-.333.43-.64l.33-.73.1-.12,2.08-4.81h.94l-2.57,5.83c-.154.373-.327.667-.52.88-.187.213-.394.363-.62.45-.227.093-.477.14-.75.14ZM282.207,239.337l-2.42-5.47h1l2.06,4.72-.64.75ZM287.754,239.227c-.44,0-.86-.06-1.26-.18-.393-.12-.703-.267-.93-.44l.4-.76c.227.153.507.283.84.39.334.107.674.16,1.02.16.447,0,.767-.063.96-.19.2-.127.3-.303.3-.53,0-.167-.06-.297-.18-.39s-.28-.163-.48-.21c-.193-.047-.41-.087-.65-.12-.24-.04-.48-.087-.72-.14-.24-.06-.46-.14-.66-.24-.2-.107-.36-.25-.48-.43-.12-.187-.18-.433-.18-.74,0-.32.09-.6.27-.84.18-.24.434-.423.76-.55.334-.133.727-.2,1.18-.2.347,0,.697.043,1.05.13.36.08.654.197.88.35l-.41.76c-.24-.16-.49-.27-.75-.33-.26-.06-.52-.09-.78-.09-.42,0-.733.07-.94.21-.206.133-.31.307-.31.52,0,.18.06.32.18.42.127.093.287.167.48.22.2.053.42.1.66.14.24.033.48.08.72.14.24.053.457.13.65.23.2.1.36.24.48.42.127.18.19.42.19.72,0,.32-.093.597-.28.83-.186.233-.45.417-.79.55-.34.127-.746.19-1.22.19Z"/><path class="ae" d="M312,248.692c0,6.251-4.819,10.49-10.763,10.49s-10.763-4.555-10.763-10.352c0-2.922.019-6.879,1.656-10.628.783-1.794,1.931,2.761,3.173,2.07.966-1.104,6.466-10.476,9.246-10.628,1.297.126,1.008,8.568,3.312,10.214.966.69,2.254-2.208,2.569-1.104.993,3.492,1.57,7.273,1.57,9.938Z"/><path class="al" d="M312,248.692c0,6.251-4.819,10.49-10.763,10.49s-10.763-4.555-10.763-10.352c0-2.922.019-6.879,1.656-10.628.783-1.794,1.931,2.761,3.173,2.07.966-1.104,6.466-10.476,9.246-10.628,1.297.126,1.008,8.568,3.312,10.214.966.69,2.254-2.208,2.569-1.104.993,3.492,1.57,7.273,1.57,9.938Z"/><path class="as" d="M307.473,239.489s-.001,0-.001,0c-.999-1.201-1.418-3.863-1.772-6.117-.285-1.813-.528-3.362-1-3.673.472.31.715,1.86,1.001,3.674.354,2.253.772,4.915,1.772,6.117ZM308.6,235.807c.591-2.448.904-5.007.904-7.64,0-17.673-14.126-32-31.551-32s-31.552,14.327-31.552,32,14.126,32,31.552,32c4.741,0,9.237-1.06,13.271-2.96-1.617-1.819-2.718-4.1-3.062-6.658-3.104,1.459-6.563,2.273-10.209,2.273-13.426,0-24.31-11.038-24.31-24.655s10.884-24.655,24.31-24.655c13.343,0,24.175,10.903,24.308,24.404.559-.341,1.301-.682,2.158-.73l.181-.01.181.018c1.53.148,2.195,1.419,2.363,1.761.25.511.405,1.086.511,1.55.168.733.314,1.664.453,2.547h0c.039.249.078.495.116.731.117.724.238,1.408.376,2.025Z"/><path class="ar" d="M307.473,239.489s-.001,0-.001,0c-.999-1.201-1.418-3.863-1.772-6.117-.285-1.813-.528-3.362-1-3.673.472.31.715,1.86,1.001,3.674.354,2.253.772,4.915,1.772,6.117ZM308.6,235.807c.591-2.448.904-5.007.904-7.64,0-17.673-14.126-32-31.551-32s-31.552,14.327-31.552,32,14.126,32,31.552,32c4.741,0,9.237-1.06,13.271-2.96-1.617-1.819-2.718-4.1-3.062-6.658-3.104,1.459-6.563,2.273-10.209,2.273-13.426,0-24.31-11.038-24.31-24.655s10.884-24.655,24.31-24.655c13.343,0,24.175,10.903,24.308,24.404.559-.341,1.301-.682,2.158-.73l.181-.01.181.018c1.53.148,2.195,1.419,2.363,1.761.25.511.405,1.086.511,1.55.168.733.314,1.664.453,2.547h0c.039.249.078.495.116.731.117.724.238,1.408.376,2.025Z"/><g class="aw"><path class="au" d="M55.529,284.667v-8.4h.984l3.768,6.348h-.528l3.72-6.348h.984l.012,8.4h-1.152l-.012-6.588h.276l-3.312,5.568h-.552l-3.336-5.568h.3v6.588h-1.152Z"/><path class="au" d="M95.422,284.667v-7.356h-2.88v-1.044h6.948v1.044h-2.88v7.356h-1.188ZM103.153,284.739c-.544,0-1.024-.1-1.44-.3-.408-.2-.728-.504-.96-.912-.224-.416-.336-.936-.336-1.56v-3.66h1.152v3.528c0,.624.148,1.092.444,1.404.304.312.728.468,1.272.468.4,0,.748-.08,1.044-.24.296-.168.524-.408.684-.72.16-.32.24-.704.24-1.152v-3.288h1.152v6.36h-1.092v-1.716l.18.456c-.208.424-.52.752-.936.984s-.884.348-1.404.348Z"/><path class="au" d="M136.436,284.667l-2.808-8.4h1.236l2.58,7.752h-.624l2.676-7.752h1.104l2.616,7.752h-.6l2.616-7.752h1.14l-2.808,8.4h-1.26l-2.448-7.188h.324l-2.46,7.188h-1.284Z"/><path class="au" d="M175.323,284.667v-7.356h-2.88v-1.044h6.948v1.044h-2.88v7.356h-1.188ZM183.926,278.247c.52,0,.976.1,1.368.3.4.2.712.504.936.912s.336.924.336,1.548v3.66h-1.152v-3.528c0-.616-.152-1.08-.456-1.392-.296-.312-.716-.468-1.26-.468-.408,0-.764.08-1.068.24-.304.16-.54.396-.708.708-.16.312-.24.7-.24,1.164v3.276h-1.152v-8.904h1.152v4.26l-.228-.456c.208-.416.528-.74.96-.972.432-.232.936-.348,1.512-.348Z"/><path class="au" d="M216.129,280.239h4.332v1.032h-4.332v-1.032ZM216.249,284.667h-1.2v-8.4h5.928v1.044h-4.728v7.356ZM222.381,284.667v-6.36h1.104v1.728l-.108-.432c.176-.44.472-.776.888-1.008s.928-.348,1.536-.348v1.116c-.048-.008-.096-.012-.144-.012h-.12c-.616,0-1.104.184-1.464.552-.36.368-.54.9-.54,1.596v3.168h-1.152Z"/><path class="au" d="M256.396,284.763c-.64,0-1.252-.096-1.836-.288-.584-.2-1.044-.456-1.38-.768l.444-.936c.32.28.728.512,1.224.696.496.184,1.012.276,1.548.276.488,0,.884-.056,1.188-.168s.528-.264.672-.456c.144-.2.216-.424.216-.672,0-.288-.096-.52-.288-.696-.184-.176-.428-.316-.732-.42-.296-.112-.624-.208-.984-.288s-.724-.172-1.092-.276c-.36-.112-.692-.252-.996-.42-.296-.168-.536-.392-.72-.672-.184-.288-.276-.656-.276-1.104,0-.432.112-.828.336-1.188.232-.368.584-.66,1.056-.876.48-.224,1.088-.336,1.824-.336.488,0,.972.064,1.452.192s.896.312,1.247.552l-.395.96c-.36-.24-.74-.412-1.14-.516-.4-.112-.788-.168-1.164-.168-.472,0-.86.06-1.164.18-.304.12-.528.28-.672.48-.136.2-.204.424-.204.672,0,.296.092.532.276.708.192.176.436.316.732.42.304.104.636.2.996.288.36.08.72.172,1.08.276.368.104.7.24.996.408.304.168.548.392.732.672.184.28.276.64.276,1.08,0,.424-.116.82-.349,1.188-.231.36-.591.652-1.079.876-.48.216-1.088.324-1.824.324ZM265.181,284.667v-1.344l-.06-.252v-2.292c0-.488-.144-.864-.432-1.128-.28-.272-.704-.408-1.272-.408-.376,0-.744.064-1.104.192-.36.12-.664.284-.912.492l-.48-.864c.328-.264.72-.464,1.176-.6.464-.144.948-.216,1.452-.216.872,0,1.544.212,2.016.636.472.424.708,1.072.708,1.944v3.84h-1.092ZM263.093,284.739c-.472,0-.888-.08-1.248-.24-.352-.16-.624-.38-.816-.66-.192-.288-.288-.612-.288-.972,0-.344.08-.656.24-.936.168-.28.436-.504.804-.672.376-.168.88-.252,1.512-.252h2.016v.828h-1.968c-.576,0-.964.096-1.164.288s-.3.424-.3.696c0,.312.124.564.372.756.248.184.592.276,1.032.276.432,0,.808-.096,1.128-.288.328-.192.564-.472.708-.84l.228.792c-.152.376-.42.676-.804.9-.384.216-.868.324-1.452.324Z"/><path class="au" d="M295.921,284.763c-.64,0-1.252-.096-1.836-.288-.584-.2-1.044-.456-1.38-.768l.444-.936c.32.28.728.512,1.224.696.496.184,1.012.276,1.548.276.488,0,.884-.056,1.188-.168.304-.112.528-.264.672-.456.144-.2.216-.424.216-.672,0-.288-.096-.52-.288-.696-.184-.176-.428-.316-.732-.42-.296-.112-.624-.208-.984-.288-.36-.08-.724-.172-1.092-.276-.36-.112-.692-.252-.996-.42-.296-.168-.536-.392-.72-.672-.184-.288-.276-.656-.276-1.104,0-.432.112-.828.336-1.188.232-.368.584-.66,1.056-.876.48-.224,1.088-.336,1.824-.336.488,0,.972.064,1.452.192s.896.312,1.248.552l-.396.96c-.36-.24-.74-.412-1.14-.516-.4-.112-.788-.168-1.164-.168-.472,0-.86.06-1.164.18-.304.12-.528.28-.672.48-.136.2-.204.424-.204.672,0,.296.092.532.276.708.192.176.436.316.732.42.304.104.636.2.996.288.36.08.72.172,1.08.276.368.104.7.24.996.408.304.168.548.392.732.672s.276.64.276,1.08c0,.424-.116.82-.348,1.188-.232.36-.592.652-1.08.876-.48.216-1.088.324-1.824.324ZM303.434,284.739c-.544,0-1.024-.1-1.44-.3-.408-.2-.728-.504-.96-.912-.224-.416-.336-.936-.336-1.56v-3.66h1.152v3.528c0,.624.148,1.092.444,1.404.304.312.728.468,1.272.468.4,0,.748-.08,1.044-.24.296-.168.524-.408.684-.72.16-.32.24-.704.24-1.152v-3.288h1.152v6.36h-1.092v-1.716l.18.456c-.208.424-.52.752-.936.984-.416.232-.884.348-1.404.348Z"/></g><path class="aa" d="M69.75,316.933c0,5.503-4.365,9.234-9.75,9.234s-9.75-4.009-9.75-9.112c0-2.572.018-6.055,1.5-9.355.709-1.58,1.75,2.43,2.875,1.822.875-.972,5.857-9.221,8.375-9.355,1.175.111.913,7.542,3,8.991.875.607,2.042-1.944,2.327-.972.9,3.073,1.423,6.401,1.423,8.747Z"/><path class="aq" d="M69.75,316.933c0,5.503-4.365,9.234-9.75,9.234s-9.75-4.009-9.75-9.112c0-2.572.018-6.055,1.5-9.355.709-1.58,1.75,2.43,2.875,1.822.875-.972,5.857-9.221,8.375-9.355,1.175.111.913,7.542,3,8.991.875.607,2.042-1.944,2.327-.972.9,3.073,1.423,6.401,1.423,8.747Z"/><path class="av" d="M66.31,314.171c.135-.179.246-.371.246-.611,0-.591-.482-1.07-1.077-1.07-.203,0-.393.056-.555.153-.202.121-.354.295-.522.458l-2.796,2.736-3.02,2.93-1.386-1.274-.693-.637c-.285-.263-.555-.549-.847-.802-.189-.164-.437-.263-.708-.263-.595,0-1.077.479-1.077,1.069,0,.351.169.661.431.857l1.773,1.578,1.773,1.579c.197.254.506.418.854.418.353,0,.666-.168.862-.428l3.197-3.174c1.181-1.173,2.363-2.346,3.544-3.519Z"/><path class="y" d="M109.75,316.933c0,5.503-4.365,9.234-9.75,9.234s-9.75-4.009-9.75-9.112c0-2.572.018-6.055,1.5-9.355.709-1.58,1.75,2.43,2.875,1.822.875-.972,5.857-9.221,8.375-9.355,1.175.111.913,7.542,3,8.991.875.607,2.042-1.944,2.327-.972.9,3.073,1.423,6.401,1.423,8.747Z"/><path class="ap" d="M109.75,316.933c0,5.503-4.365,9.234-9.75,9.234s-9.75-4.009-9.75-9.112c0-2.572.018-6.055,1.5-9.355.709-1.58,1.75,2.43,2.875,1.822.875-.972,5.857-9.221,8.375-9.355,1.175.111.913,7.542,3,8.991.875.607,2.042-1.944,2.327-.972.9,3.073,1.423,6.401,1.423,8.747Z"/><path class="av" d="M106.31,314.171c.135-.179.246-.371.246-.611,0-.591-.482-1.07-1.077-1.07-.203,0-.393.056-.555.153-.202.121-.354.295-.522.458l-2.796,2.736-3.02,2.93-1.386-1.274-.693-.637c-.285-.263-.555-.549-.847-.802-.189-.164-.437-.263-.708-.263-.595,0-1.077.479-1.077,1.069,0,.351.17.661.431.857l1.773,1.578,1.773,1.579c.197.254.506.418.854.418.353,0,.666-.168.862-.428l3.197-3.174c1.181-1.173,2.363-2.346,3.544-3.519Z"/><path class="x" d="M149.75,316.933c0,5.503-4.365,9.234-9.75,9.234s-9.75-4.009-9.75-9.112c0-2.572.018-6.055,1.5-9.355.709-1.58,1.75,2.43,2.875,1.822.875-.972,5.857-9.221,8.375-9.355,1.175.111.913,7.542,3,8.991.875.607,2.042-1.944,2.327-.972.9,3.073,1.423,6.401,1.423,8.747Z"/><path class="an" d="M149.75,316.933c0,5.503-4.365,9.234-9.75,9.234s-9.75-4.009-9.75-9.112c0-2.572.018-6.055,1.5-9.355.709-1.58,1.75,2.43,2.875,1.822.875-.972,5.857-9.221,8.375-9.355,1.175.111.913,7.542,3,8.991.875.607,2.042-1.944,2.327-.972.9,3.073,1.423,6.401,1.423,8.747Z"/><path class="av" d="M146.31,314.171c.135-.179.246-.371.246-.611,0-.591-.482-1.07-1.077-1.07-.204,0-.394.056-.556.153-.202.121-.354.295-.522.458l-2.796,2.736-3.02,2.93-1.386-1.274-.693-.637c-.285-.263-.555-.549-.847-.802-.189-.164-.437-.263-.708-.263-.595,0-1.077.479-1.077,1.069,0,.351.17.661.432.857l1.773,1.578,1.773,1.579c.197.254.507.418.855.418.352,0,.665-.168.862-.428l3.197-3.174c1.181-1.173,2.362-2.346,3.544-3.519Z"/><path class="z" d="M189.75,316.933c0,5.503-4.365,9.234-9.75,9.234s-9.75-4.009-9.75-9.112c0-2.572.018-6.055,1.5-9.355.709-1.58,1.75,2.43,2.875,1.822.875-.972,5.857-9.221,8.375-9.355,1.175.111.913,7.542,3,8.991.875.607,2.042-1.944,2.327-.972.9,3.073,1.423,6.401,1.423,8.747Z"/><path class="am" d="M189.75,316.933c0,5.503-4.365,9.234-9.75,9.234s-9.75-4.009-9.75-9.112c0-2.572.018-6.055,1.5-9.355.709-1.58,1.75,2.43,2.875,1.822.875-.972,5.857-9.221,8.375-9.355,1.175.111.913,7.542,3,8.991.875.607,2.042-1.944,2.327-.972.9,3.073,1.423,6.401,1.423,8.747Z"/><path class="av" d="M186.31,314.171c.135-.179.246-.371.246-.611,0-.591-.482-1.07-1.077-1.07-.204,0-.394.056-.556.153-.202.121-.354.295-.522.458l-2.796,2.736-3.02,2.93-1.386-1.274-.693-.637c-.285-.263-.555-.549-.847-.802-.189-.164-.437-.263-.708-.263-.595,0-1.077.479-1.077,1.069,0,.351.17.661.432.857l1.773,1.578,1.773,1.579c.197.254.507.418.855.418.352,0,.665-.168.862-.428l3.197-3.174c1.181-1.173,2.362-2.346,3.544-3.519Z"/><path class="ac" d="M229.75,316.933c0,5.503-4.365,9.234-9.75,9.234s-9.75-4.009-9.75-9.112c0-2.572.018-6.055,1.5-9.355.709-1.58,1.75,2.43,2.875,1.822.875-.972,5.857-9.221,8.375-9.355,1.175.111.913,7.542,3,8.991.875.607,2.042-1.944,2.327-.972.9,3.073,1.423,6.401,1.423,8.747Z"/><path class="ao" d="M229.75,316.933c0,5.503-4.365,9.234-9.75,9.234s-9.75-4.009-9.75-9.112c0-2.572.018-6.055,1.5-9.355.709-1.58,1.75,2.43,2.875,1.822.875-.972,5.857-9.221,8.375-9.355,1.175.111.913,7.542,3,8.991.875.607,2.042-1.944,2.327-.972.9,3.073,1.423,6.401,1.423,8.747Z"/><path class="av" d="M226.31,314.171c.135-.179.246-.371.246-.611,0-.591-.482-1.07-1.077-1.07-.204,0-.394.056-.556.153-.202.121-.354.295-.522.458l-2.796,2.736-3.02,2.93-1.386-1.274-.693-.637c-.285-.263-.555-.549-.847-.802-.189-.164-.437-.263-.708-.263-.595,0-1.077.479-1.077,1.069,0,.351.17.661.432.857l1.773,1.578,1.773,1.579c.197.254.507.418.855.418.352,0,.665-.168.862-.428l3.197-3.174c1.181-1.173,2.362-2.346,3.544-3.519Z"/><path class="ab" d="M272,314.803c0,6.771-5.373,11.364-12,11.364s-12-4.935-12-11.215c0-3.166.022-7.452,1.846-11.514.873-1.944,2.154,2.991,3.539,2.243,1.077-1.196,7.208-11.348,10.307-11.514,1.447.136,1.124,9.282,3.693,11.065,1.077.748,2.513-2.392,2.864-1.196,1.108,3.783,1.751,7.879,1.751,10.767Z"/><path class="ak" d="M272,314.803c0,6.771-5.373,11.364-12,11.364s-12-4.935-12-11.215c0-3.166.022-7.452,1.846-11.514.873-1.944,2.154,2.991,3.539,2.243,1.077-1.196,7.208-11.348,10.307-11.514,1.447.136,1.124,9.282,3.693,11.065,1.077.748,2.513-2.392,2.864-1.196,1.108,3.783,1.751,7.879,1.751,10.767Z"/><path class="av" d="M266.852,311.082c.151-.204.275-.422.275-.697,0-.673-.538-1.218-1.2-1.218-.227,0-.438.064-.619.174-.225.138-.395.337-.582.522l-3.114,3.116-3.364,3.338-1.544-1.452-.772-.725c-.318-.299-.618-.626-.943-.914-.211-.186-.487-.3-.789-.3-.663,0-1.2.546-1.2,1.219,0,.399.189.753.481.975l1.975,1.798,1.975,1.798c.22.29.564.476.952.476.393,0,.742-.191.961-.487l3.561-3.616c1.315-1.336,2.631-2.671,3.947-4.007Z"/><g class="aw"><path class="ad" d="M309.75,316.933c0,5.503-4.365,9.234-9.75,9.234s-9.75-4.009-9.75-9.112c0-2.572.018-6.055,1.5-9.355.709-1.58,1.75,2.43,2.875,1.822.875-.972,5.857-9.221,8.375-9.355,1.175.111.913,7.542,3,8.991.875.607,2.042-1.944,2.327-.972.9,3.073,1.423,6.401,1.423,8.747Z" shape-rendering="crispEdges"/><path class="ax" d="M294.863,309.962l.076-.041.058-.064c.133-.148.323-.409.544-.722.182-.258.398-.57.637-.918.06-.086.12-.174.182-.264.629-.911,1.407-2.03,2.235-3.12.829-1.093,1.697-2.144,2.505-2.925.404-.39.781-.702,1.121-.918.274-.174.499-.269.676-.306.011.017.023.039.037.067.082.162.166.421.25.778.129.544.239,1.228.362,1.985.038.237.077.48.119.729.171,1.027.375,2.126.675,3.066.291.914.706,1.795,1.375,2.259.45.313.917.172,1.23-.011.303-.177.584-.458.795-.67.02-.02.039-.039.058-.058.054-.055.103-.105.15-.151.828,2.939,1.302,6.056,1.302,8.255,0,5.187-4.101,8.734-9.25,8.734s-9.25-3.819-9.25-8.612c0-2.57.023-5.934,1.44-9.114.027.03.057.067.091.11.103.131.213.291.336.474.019.028.038.057.058.087.221.33.488.73.773,1.014.157.156.355.315.594.399.259.092.546.085.821-.063ZM302.861,300.634s-.004-.004-.004-.004c.001,0,.002,0,.004.004ZM308.224,308.442s-.003.002-.007.003c.005-.002.007-.003.007-.003ZM307.842,308.309l-.003-.006s.001,0,.003.006Z" shape-rendering="crispEdges"/><path class="av" d="M306.31,314.171c.135-.179.246-.371.246-.611,0-.591-.482-1.07-1.077-1.07-.204,0-.394.056-.556.153-.202.121-.354.295-.522.458l-2.796,2.736-3.02,2.93-1.386-1.274-.693-.637c-.285-.263-.555-.549-.847-.802-.189-.164-.437-.263-.708-.263-.595,0-1.077.479-1.077,1.069,0,.351.17.661.432.857l1.773,1.578,1.773,1.579c.197.254.507.418.855.418.352,0,.665-.168.862-.428l3.197-3.174c1.181-1.173,2.362-2.346,3.544-3.519Z"/></g><g class="af"><path class="ai" d="M48,343.167h264v-2H48v2Z"/></g><path class="au" d="M63.172,351.985h1.745l2.66,4.629h.109l2.66-4.629h1.745l-3.694,6.185v3.997h-1.531v-3.997l-3.694-6.185ZM75.227,362.321c-.716,0-1.341-.164-1.874-.492s-.948-.787-1.243-1.377-.443-1.28-.443-2.068c0-.793.148-1.485.443-2.079.295-.593.709-1.053,1.243-1.382.534-.328,1.158-.492,1.874-.492s1.341.164,1.874.492c.534.329.948.789,1.243,1.382.295.594.442,1.286.442,2.079,0,.788-.147,1.478-.442,2.068-.295.59-.709,1.049-1.243,1.377s-1.158.492-1.874.492ZM75.232,361.073c.464,0,.848-.122,1.153-.368.305-.245.53-.571.676-.979.149-.408.224-.857.224-1.347s-.075-.935-.224-1.343c-.146-.411-.371-.74-.676-.989-.305-.249-.689-.373-1.153-.373-.467,0-.855.124-1.163.373-.305.249-.532.578-.681.989-.146.408-.219.855-.219,1.343s.073.939.219,1.347c.149.408.376.734.681.979.308.246.696.368,1.163.368ZM85.129,359v-4.469h1.491v7.636h-1.462v-1.322h-.08c-.176.407-.457.747-.845,1.019-.384.268-.863.402-1.437.402-.491,0-.925-.107-1.303-.323-.374-.218-.669-.542-.885-.969-.212-.428-.318-.956-.318-1.586v-4.857h1.486v4.678c0,.52.144.935.433,1.243.288.308.663.462,1.124.462.278,0,.555-.069.83-.209.278-.139.509-.349.691-.631.186-.282.277-.64.273-1.074ZM88.464,362.167v-7.636h1.437v1.213h.079c.139-.411.384-.734.736-.97.355-.238.756-.358,1.203-.358.093,0,.202.004.328.01.129.007.23.015.303.025v1.422c-.06-.017-.166-.035-.318-.055-.152-.023-.305-.035-.457-.035-.351,0-.665.075-.94.224-.272.146-.487.35-.646.612-.159.258-.239.553-.239.885v4.663h-1.487ZM98.72,357.633v4.534h-1.486v-10.182h1.467v3.789h.094c.179-.411.452-.738.82-.98.368-.242.848-.363,1.442-.363.524,0,.981.108,1.372.323.394.216.699.537.915.965.219.424.328.954.328,1.591v4.857h-1.487v-4.678c0-.56-.144-.995-.433-1.303-.288-.311-.689-.467-1.203-.467-.351,0-.666.074-.945.224-.275.149-.492.367-.651.656-.156.285-.234.63-.234,1.034ZM105.502,362.167v-7.636h1.487v7.636h-1.487ZM106.253,353.352c-.258,0-.481-.086-.666-.258-.182-.176-.273-.385-.273-.627,0-.245.091-.454.273-.626.186-.176.408-.263.666-.263s.479.087.661.263c.186.172.278.381.278.626,0,.242-.093.451-.278.627-.182.172-.403.258-.661.258ZM112.036,365.19c-.606,0-1.128-.08-1.566-.239-.434-.159-.789-.369-1.064-.631s-.48-.549-.616-.86l1.278-.527c.09.145.209.3.358.462.152.166.358.307.617.423.262.116.598.174,1.009.174.564,0,1.029-.138,1.397-.413.368-.272.552-.706.552-1.303v-1.501h-.095c-.09.162-.219.343-.388.542-.166.199-.394.371-.686.517-.292.146-.671.219-1.138.219-.603,0-1.147-.141-1.631-.423-.481-.285-.862-.704-1.144-1.258-.278-.557-.418-1.241-.418-2.053s.138-1.508.413-2.088c.278-.58.66-1.024,1.143-1.332.484-.312,1.033-.468,1.646-.468.474,0,.857.08,1.149.239.292.156.519.338.681.547.166.209.293.392.383.552h.109v-1.238h1.457v7.805c0,.656-.152,1.195-.457,1.616-.305.421-.718.732-1.238.934-.517.203-1.1.304-1.75.304ZM112.021,360.82c.428,0,.789-.1,1.084-.299.298-.202.524-.49.676-.865.156-.377.234-.83.234-1.357,0-.514-.076-.966-.229-1.357-.152-.391-.376-.696-.671-.915-.295-.222-.66-.333-1.094-.333-.447,0-.82.116-1.119.348-.298.229-.524.54-.676.935-.149.394-.224.835-.224,1.322,0,.501.076.94.229,1.318.152.377.378.672.676.885.302.212.673.318,1.114.318ZM118.807,357.633v4.534h-1.486v-10.182h1.466v3.789h.095c.179-.411.452-.738.82-.98.368-.242.849-.363,1.442-.363.524,0,.981.108,1.372.323.395.216.699.537.915.965.219.424.328.954.328,1.591v4.857h-1.486v-4.678c0-.56-.145-.995-.433-1.303-.288-.311-.689-.467-1.203-.467-.351,0-.666.074-.945.224-.275.149-.492.367-.651.656-.156.285-.234.63-.234,1.034ZM128.88,362.321c-.752,0-1.4-.161-1.944-.482-.54-.325-.958-.781-1.253-1.367-.292-.59-.437-1.281-.437-2.073,0-.783.145-1.472.437-2.069.295-.596.706-1.062,1.233-1.397.53-.334,1.15-.502,1.859-.502.431,0,.849.071,1.253.214.405.143.768.366,1.089.671.322.305.575.701.761,1.188.185.484.278,1.073.278,1.765v.527h-6.07v-1.113h4.614c0-.391-.08-.738-.239-1.039-.159-.305-.383-.546-.671-.721-.285-.176-.62-.264-1.005-.264-.417,0-.782.103-1.093.308-.309.203-.547.468-.716.796-.166.325-.249.678-.249,1.059v.87c0,.51.09.944.269,1.302.182.358.436.632.76.821.325.185.705.278,1.139.278.282,0,.538-.04.77-.119.232-.083.433-.206.602-.368s.298-.363.388-.602l1.407.254c-.113.414-.315.777-.607,1.089-.288.308-.651.548-1.089.721-.434.169-.929.253-1.486.253ZM139.374,356.395l-1.347.239c-.057-.173-.146-.337-.269-.493-.119-.155-.282-.283-.487-.382-.206-.1-.463-.15-.771-.15-.421,0-.772.095-1.054.284-.281.185-.422.426-.422.721,0,.255.094.46.283.616.189.156.494.284.915.383l1.213.278c.703.163,1.226.413,1.571.751.345.338.517.777.517,1.318,0,.457-.133.865-.398,1.223-.262.354-.628.633-1.098.835-.468.202-1.01.303-1.626.303-.855,0-1.553-.182-2.093-.547-.54-.368-.872-.89-.995-1.566l1.437-.219c.09.375.274.658.552.851.278.189.641.283,1.089.283.487,0,.877-.101,1.168-.303.292-.206.438-.456.438-.751,0-.239-.09-.439-.269-.602-.175-.162-.446-.285-.81-.367l-1.293-.284c-.712-.162-1.239-.421-1.581-.775-.338-.355-.507-.804-.507-1.348,0-.45.126-.845.378-1.183s.6-.602,1.044-.79c.444-.193.953-.289,1.526-.289.826,0,1.475.179,1.949.537.474.355.787.83.94,1.427ZM144.568,354.531v1.193h-4.171v-1.193h4.171ZM141.515,352.701h1.487v7.224c0,.288.043.505.129.651.086.143.197.24.333.293.14.05.29.075.453.075.119,0,.223-.008.313-.025.089-.016.159-.03.209-.04l.268,1.228c-.086.033-.209.067-.368.1-.159.036-.358.056-.596.059-.391.007-.756-.063-1.094-.208-.338-.146-.612-.372-.82-.677-.209-.304-.314-.687-.314-1.148v-7.532ZM155.282,354.66c-.053-.471-.272-.835-.656-1.094-.385-.262-.869-.393-1.452-.393-.418,0-.779.067-1.084.199-.305.13-.542.308-.711.537-.165.226-.248.482-.248.771,0,.242.056.451.169.626.116.176.267.323.452.443.189.116.391.213.607.293.215.076.422.139.621.189l.994.258c.325.08.658.188,1,.324.341.135.658.314.949.537.292.222.527.497.706.825.183.328.274.721.274,1.178,0,.577-.149,1.089-.448,1.536-.295.448-.724.801-1.287,1.059-.56.259-1.238.388-2.034.388-.762,0-1.422-.121-1.978-.363-.557-.242-.993-.585-1.308-1.029-.315-.447-.489-.978-.522-1.591h1.541c.03.368.149.675.358.92.212.242.482.422.811.542.331.116.694.174,1.088.174.435,0,.821-.068,1.159-.204.341-.139.61-.332.805-.577.196-.248.293-.538.293-.87,0-.301-.086-.548-.258-.741-.169-.192-.399-.351-.691-.477-.288-.126-.615-.237-.98-.333l-1.203-.328c-.815-.222-1.461-.549-1.939-.98-.474-.43-.711-1-.711-1.71,0-.586.16-1.098.478-1.536.318-.437.749-.777,1.292-1.019.544-.245,1.157-.368,1.84-.368.689,0,1.297.121,1.824.363.531.242.948.575,1.253.999.305.421.464.905.478,1.452h-1.482ZM162.03,354.531v1.193h-4.171v-1.193h4.171ZM158.977,352.701h1.487v7.224c0,.288.043.505.129.651.086.143.197.24.333.293.139.05.29.075.453.075.119,0,.223-.008.313-.025.089-.016.159-.03.209-.04l.268,1.228c-.086.033-.209.067-.368.1-.159.036-.358.056-.596.059-.392.007-.756-.063-1.094-.208-.338-.146-.612-.372-.821-.677-.208-.304-.313-.687-.313-1.148v-7.532ZM166.729,362.321c-.752,0-1.4-.161-1.944-.482-.54-.325-.957-.781-1.252-1.367-.292-.59-.438-1.281-.438-2.073,0-.783.146-1.472.438-2.069.295-.596.706-1.062,1.233-1.397.53-.334,1.15-.502,1.859-.502.431,0,.848.071,1.253.214.404.143.767.366,1.089.671.321.305.575.701.76,1.188.186.484.279,1.073.279,1.765v.527h-6.071v-1.113h4.614c0-.391-.08-.738-.239-1.039-.159-.305-.383-.546-.671-.721-.285-.176-.62-.264-1.004-.264-.418,0-.782.103-1.094.308-.308.203-.547.468-.716.796-.165.325-.248.678-.248,1.059v.87c0,.51.089.944.268,1.302.182.358.436.632.761.821.325.185.704.278,1.138.278.282,0,.539-.04.771-.119.232-.083.432-.206.601-.368.169-.162.299-.363.388-.602l1.407.254c-.113.414-.315.777-.606,1.089-.289.308-.652.548-1.089.721-.434.169-.93.253-1.487.253ZM171.501,365.031v-10.5h1.452v1.238h.124c.086-.16.21-.343.373-.552.162-.209.388-.391.676-.547.288-.159.669-.239,1.143-.239.617,0,1.167.156,1.651.468.484.311.863.76,1.138,1.347.279.586.418,1.292.418,2.118s-.137,1.533-.413,2.123c-.275.586-.652,1.039-1.133,1.357-.481.315-1.029.472-1.646.472-.464,0-.843-.078-1.138-.234-.292-.155-.521-.338-.686-.546-.166-.209-.294-.395-.383-.557h-.09v4.052h-1.486ZM172.958,358.349c0,.537.078,1.007.233,1.412.156.404.381.721.676.949.295.226.657.338,1.084.338.444,0,.816-.117,1.114-.353.298-.238.524-.561.676-.969.156-.408.234-.867.234-1.377,0-.504-.077-.956-.229-1.357-.149-.401-.375-.718-.676-.95-.298-.232-.671-.348-1.119-.348-.431,0-.795.111-1.094.333-.295.222-.518.532-.671.93-.152.397-.228.862-.228,1.392ZM189.211,354.66c-.053-.471-.272-.835-.656-1.094-.384-.262-.868-.393-1.452-.393-.417,0-.779.067-1.084.199-.304.13-.541.308-.71.537-.166.226-.249.482-.249.771,0,.242.056.451.169.626.116.176.267.323.452.443.189.116.391.213.607.293.215.076.423.139.621.189l.995.258c.325.08.658.188.999.324.341.135.658.314.95.537.291.222.527.497.706.825.182.328.273.721.273,1.178,0,.577-.149,1.089-.447,1.536-.295.448-.725.801-1.288,1.059-.56.259-1.238.388-2.033.388-.763,0-1.422-.121-1.979-.363-.557-.242-.993-.585-1.308-1.029-.315-.447-.489-.978-.522-1.591h1.541c.03.368.15.675.358.92.213.242.483.422.811.542.331.116.694.174,1.089.174.434,0,.82-.068,1.158-.204.341-.139.61-.332.805-.577.196-.248.294-.538.294-.87,0-.301-.087-.548-.259-.741-.169-.192-.399-.351-.691-.477-.288-.126-.615-.237-.979-.333l-1.203-.328c-.816-.222-1.462-.549-1.939-.98-.474-.43-.711-1-.711-1.71,0-.586.159-1.098.477-1.536.318-.437.749-.777,1.293-1.019.543-.245,1.156-.368,1.839-.368.689,0,1.298.121,1.825.363.53.242.948.575,1.252.999.305.421.465.905.478,1.452h-1.482ZM195.959,354.531v1.193h-4.171v-1.193h4.171ZM192.906,352.701h1.487v7.224c0,.288.043.505.129.651.086.143.197.24.333.293.14.05.29.075.453.075.119,0,.223-.008.313-.025.089-.016.159-.03.209-.04l.268,1.228c-.086.033-.209.067-.368.1-.159.036-.358.056-.596.059-.391.007-.756-.063-1.094-.208-.338-.146-.611-.372-.82-.677-.209-.304-.314-.687-.314-1.148v-7.532ZM197.449,362.167v-7.636h1.437v1.213h.08c.139-.411.384-.734.736-.97.354-.238.755-.358,1.203-.358.092,0,.202.004.328.01.129.007.23.015.303.025v1.422c-.06-.017-.166-.035-.318-.055-.153-.023-.305-.035-.458-.035-.351,0-.664.075-.939.224-.272.146-.487.35-.646.612-.16.258-.239.553-.239.885v4.663h-1.487ZM205.686,362.321c-.752,0-1.4-.161-1.944-.482-.54-.325-.958-.781-1.253-1.367-.291-.59-.437-1.281-.437-2.073,0-.783.146-1.472.437-2.069.295-.596.706-1.062,1.233-1.397.531-.334,1.151-.502,1.86-.502.431,0,.848.071,1.253.214.404.143.767.366,1.088.671.322.305.575.701.761,1.188.186.484.278,1.073.278,1.765v.527h-6.07v-1.113h4.614c0-.391-.08-.738-.239-1.039-.159-.305-.383-.546-.671-.721-.285-.176-.62-.264-1.004-.264-.418,0-.782.103-1.094.308-.308.203-.547.468-.716.796-.166.325-.248.678-.248,1.059v.87c0,.51.089.944.268,1.302.182.358.436.632.761.821.324.185.704.278,1.138.278.282,0,.539-.04.771-.119.232-.083.432-.206.601-.368.169-.162.299-.363.388-.602l1.407.254c-.113.414-.315.777-.607,1.089-.288.308-.651.548-1.088.721-.434.169-.93.253-1.487.253ZM212.68,362.336c-.484,0-.921-.089-1.312-.268-.391-.183-.701-.446-.93-.791-.225-.345-.338-.767-.338-1.268,0-.431.083-.785.248-1.064.166-.278.39-.498.672-.661.281-.162.596-.285.944-.368.348-.083.703-.146,1.064-.189.458-.053.829-.096,1.114-.129.285-.036.492-.094.621-.174.129-.079.194-.209.194-.388v-.034c0-.435-.123-.771-.368-1.01-.242-.238-.603-.358-1.084-.358-.5,0-.894.111-1.183.333-.285.219-.482.463-.591.731l-1.397-.318c.165-.464.407-.838.725-1.124.322-.288.691-.497,1.109-.626.418-.133.857-.199,1.318-.199.304,0,.628.037.969.11.345.069.666.198.964.387.302.189.549.459.741.811.192.348.289.8.289,1.357v5.071h-1.452v-1.044h-.06c-.096.192-.24.381-.432.567-.193.185-.439.339-.741.462-.302.123-.663.184-1.084.184ZM213.003,361.143c.411,0,.763-.081,1.054-.244.295-.162.519-.374.671-.636.156-.265.234-.549.234-.85v-.985c-.053.053-.156.103-.308.15-.149.043-.32.081-.512.114-.192.03-.38.058-.562.084-.182.024-.335.043-.457.06-.289.036-.552.098-.791.184-.235.086-.424.21-.567.373-.139.159-.208.371-.208.636,0,.368.135.647.407.835.272.186.618.279,1.039.279ZM219.642,359.577l-.01-1.815h.258l3.043-3.231h1.78l-3.47,3.679h-.234l-1.367,1.367ZM218.274,362.167v-10.182h1.487v10.182h-1.487ZM223.097,362.167l-2.734-3.629,1.024-1.039,3.535,4.668h-1.825ZM229.465,362.167v-7.636h1.486v7.636h-1.486ZM230.215,353.352c-.258,0-.48-.086-.666-.258-.182-.176-.273-.385-.273-.627,0-.245.091-.454.273-.626.186-.176.408-.263.666-.263s.479.087.661.263c.186.172.279.381.279.626,0,.242-.093.451-.279.627-.182.172-.402.258-.661.258ZM238.519,356.395l-1.347.239c-.056-.173-.146-.337-.269-.493-.119-.155-.281-.283-.487-.382-.205-.1-.462-.15-.77-.15-.421,0-.773.095-1.054.284-.282.185-.423.426-.423.721,0,.255.095.46.283.616.189.156.494.284.915.383l1.213.278c.703.163,1.227.413,1.571.751.345.338.517.777.517,1.318,0,.457-.132.865-.397,1.223-.262.354-.628.633-1.099.835-.467.202-1.009.303-1.626.303-.855,0-1.553-.182-2.093-.547-.54-.368-.872-.89-.994-1.566l1.437-.219c.089.375.273.658.551.851.279.189.642.283,1.089.283.487,0,.877-.101,1.169-.303.291-.206.437-.456.437-.751,0-.239-.089-.439-.268-.602-.176-.162-.446-.285-.811-.367l-1.292-.284c-.713-.162-1.24-.421-1.581-.775-.338-.355-.507-.804-.507-1.348,0-.45.125-.845.377-1.183s.6-.602,1.044-.79c.445-.193.953-.289,1.527-.289.825,0,1.475.179,1.949.537.474.355.787.83.939,1.427Z"/><path class="ag" d="M243.526,362.167v-1.551l3.624-3.356c.308-.298.567-.567.776-.805.212-.239.373-.473.482-.701.109-.232.164-.483.164-.751,0-.298-.068-.555-.204-.771-.136-.218-.321-.386-.557-.502-.235-.119-.502-.179-.8-.179-.312,0-.583.063-.815.189-.232.126-.411.307-.537.542-.126.235-.189.515-.189.84h-2.044c0-.666.151-1.244.453-1.735.301-.49.724-.87,1.268-1.138.543-.269,1.17-.403,1.879-.403.729,0,1.364.129,1.904.388.543.255.966.61,1.268,1.064.301.454.452.974.452,1.561,0,.384-.076.764-.229,1.138-.149.375-.416.791-.8,1.248-.384.454-.926.999-1.626,1.636l-1.486,1.456v.07h4.275v1.76h-7.258ZM255.954,362.306c-.743,0-1.404-.127-1.984-.383-.577-.258-1.032-.613-1.367-1.064-.332-.454-.502-.977-.512-1.571h2.167c.014.249.095.468.244.657.152.185.355.329.606.432.252.103.536.154.851.154.328,0,.618-.058.87-.174s.449-.276.591-.482c.143-.205.214-.442.214-.711,0-.272-.076-.512-.229-.721-.149-.212-.364-.378-.646-.497-.278-.119-.61-.179-.994-.179h-.95v-1.581h.95c.325,0,.611-.056.86-.169.252-.113.447-.268.586-.467.14-.202.209-.438.209-.706,0-.255-.061-.479-.184-.671-.119-.196-.288-.348-.507-.458-.215-.109-.467-.164-.755-.164-.292,0-.559.053-.801.159-.242.103-.436.251-.582.443-.145.192-.223.417-.233.676h-2.063c.01-.587.177-1.104.502-1.551.325-.448.762-.797,1.312-1.049.554-.255,1.178-.383,1.874-.383.703,0,1.318.128,1.845.383.527.255.936.6,1.228,1.034.295.431.441.915.437,1.452.004.57-.174,1.045-.532,1.426-.354.382-.817.624-1.387.726v.08c.749.096,1.32.356,1.711.78.394.421.59.948.586,1.581.004.58-.164,1.096-.502,1.547-.335.45-.797.805-1.387,1.063-.59.259-1.266.388-2.028.388ZM268.02,362.167h-3.609v-10.182h3.639c1.024,0,1.906.204,2.645.612.739.404,1.307.986,1.705,1.745.401.759.601,1.667.601,2.724s-.2,1.972-.601,2.735c-.398.762-.97,1.347-1.715,1.754-.743.408-1.631.612-2.665.612ZM266.563,360.323h1.367c.637,0,1.172-.113,1.606-.339.438-.228.766-.581.985-1.058.222-.481.333-1.101.333-1.86,0-.752-.111-1.367-.333-1.844-.219-.478-.546-.829-.98-1.054-.434-.226-.969-.338-1.606-.338h-1.372v6.493ZM276.58,362.311c-.487,0-.921-.084-1.303-.253-.381-.173-.682-.426-.904-.761-.219-.338-.329-.759-.329-1.263,0-.424.078-.78.234-1.069.156-.288.368-.52.636-.696.269-.175.574-.308.915-.397.345-.09.706-.153,1.084-.189.444-.047.802-.09,1.074-.13.272-.043.469-.106.591-.189.123-.082.184-.205.184-.367v-.03c0-.315-.099-.559-.298-.731-.195-.172-.474-.259-.835-.259-.381,0-.684.085-.91.254-.225.166-.374.374-.447.626l-1.959-.159c.099-.464.295-.865.587-1.203.291-.341.667-.603,1.128-.785.464-.186,1.001-.279,1.611-.279.424,0,.83.05,1.218.149.391.1.737.254,1.039.463.305.209.545.477.721.805.176.325.263.714.263,1.168v5.151h-2.008v-1.059h-.06c-.122.239-.287.449-.492.631-.206.179-.452.32-.741.423-.288.099-.621.149-.999.149ZM277.186,360.85c.312,0,.587-.062.826-.184.238-.126.426-.295.562-.508.135-.212.203-.452.203-.72v-.811c-.066.043-.157.083-.273.12-.113.033-.24.064-.383.094-.142.027-.285.051-.427.075-.143.019-.272.038-.388.054-.249.037-.466.095-.652.174-.185.08-.329.188-.432.323-.103.133-.154.299-.154.498,0,.288.104.508.313.661.212.149.481.224.805.224ZM283.404,365.031c-.269,0-.521-.022-.756-.065-.232-.04-.424-.091-.577-.154l.477-1.581c.249.076.473.118.672.124.202.007.376-.04.522-.139.149-.099.27-.268.363-.507l.124-.323-2.74-7.855h2.228l1.581,5.608h.079l1.596-5.608h2.242l-2.968,8.461c-.142.411-.336.769-.581,1.074-.242.308-.549.545-.92.711-.371.169-.819.254-1.342.254ZM296.499,356.708l-1.939.12c-.033-.166-.104-.315-.214-.448-.109-.136-.253-.244-.432-.323-.176-.083-.387-.124-.632-.124-.328,0-.605.069-.83.208-.225.136-.338.319-.338.547,0,.183.073.337.219.463.145.126.396.227.75.303l1.382.278c.743.153,1.296.398,1.661.736.365.338.547.782.547,1.333,0,.5-.148.939-.443,1.317-.291.378-.692.673-1.203.885-.507.209-1.092.313-1.755.313-1.011,0-1.816-.21-2.416-.631-.597-.424-.946-1.001-1.049-1.73l2.083-.11c.063.309.216.544.458.706.242.159.551.239.929.239.371,0,.67-.071.895-.214.229-.146.345-.333.348-.562-.003-.192-.084-.349-.243-.472-.16-.126-.405-.222-.736-.288l-1.323-.264c-.745-.149-1.301-.408-1.665-.775-.361-.368-.542-.837-.542-1.407,0-.491.132-.913.398-1.268.268-.355.644-.628,1.128-.82.487-.193,1.057-.289,1.71-.289.965,0,1.724.204,2.277.612.557.407.882.963.975,1.665Z"/></svg>