<svg width="123" height="58" viewBox="0 0 123 58" fill="none" xmlns="http://www.w3.org/2000/svg">
<path d="M16.2023 15.8384C16.2023 16.8354 15.4136 17.6437 14.4405 17.6437C13.4675 17.6437 12.6787 16.8354 12.6787 15.8384C12.6787 14.8413 13.4675 14.033 14.4405 14.033C15.4136 14.033 16.2023 14.8413 16.2023 15.8384Z" fill="url(#paint0_linear_504_3057)"/>
<path d="M16.2023 15.8384C16.2023 16.8354 15.4136 17.6437 14.4405 17.6437C13.4675 17.6437 12.6787 16.8354 12.6787 15.8384C12.6787 14.8413 13.4675 14.033 14.4405 14.033C15.4136 14.033 16.2023 14.8413 16.2023 15.8384Z" fill="url(#paint1_linear_504_3057)" fill-opacity="0.2"/>
<path d="M19.6281 16.4736C19.6281 17.2121 19.0438 17.8109 18.323 17.8109C17.6023 17.8109 17.018 17.2121 17.018 16.4736C17.018 15.735 17.6023 15.1363 18.323 15.1363C19.0438 15.1363 19.6281 15.735 19.6281 16.4736Z" fill="url(#paint2_linear_504_3057)"/>
<path d="M19.6281 16.4736C19.6281 17.2121 19.0438 17.8109 18.323 17.8109C17.6023 17.8109 17.018 17.2121 17.018 16.4736C17.018 15.735 17.6023 15.1363 18.323 15.1363C19.0438 15.1363 19.6281 15.735 19.6281 16.4736Z" fill="url(#paint3_linear_504_3057)" fill-opacity="0.2"/>
<path d="M22.4013 18.2288C22.4013 18.9212 21.8535 19.4825 21.1778 19.4825C20.5021 19.4825 19.9544 18.9212 19.9544 18.2288C19.9544 17.5364 20.5021 16.9751 21.1778 16.9751C21.8535 16.9751 22.4013 17.5364 22.4013 18.2288Z" fill="url(#paint4_linear_504_3057)"/>
<path d="M22.4013 18.2288C22.4013 18.9212 21.8535 19.4825 21.1778 19.4825C20.5021 19.4825 19.9544 18.9212 19.9544 18.2288C19.9544 17.5364 20.5021 16.9751 21.1778 16.9751C21.8535 16.9751 22.4013 17.5364 22.4013 18.2288Z" fill="url(#paint5_linear_504_3057)" fill-opacity="0.2"/>
<path d="M24 21.0036C24 21.6406 23.4961 22.157 22.8744 22.157C22.2527 22.157 21.7488 21.6406 21.7488 21.0036C21.7488 20.3666 22.2527 19.8502 22.8744 19.8502C23.4961 19.8502 24 20.3666 24 21.0036Z" fill="url(#paint6_linear_504_3057)"/>
<path d="M24 21.0036C24 21.6406 23.4961 22.157 22.8744 22.157C22.2527 22.157 21.7488 21.6406 21.7488 21.0036C21.7488 20.3666 22.2527 19.8502 22.8744 19.8502C23.4961 19.8502 24 20.3666 24 21.0036Z" fill="url(#paint7_linear_504_3057)" fill-opacity="0.2"/>
<path d="M8.00779 13.7279C7.96604 14.724 8.72026 15.5662 9.69239 15.609C10.6645 15.6518 11.4864 14.879 11.5282 13.8828C11.5699 12.8867 10.8157 12.0445 9.84358 12.0017C8.87145 11.9589 8.04954 12.7318 8.00779 13.7279Z" fill="url(#paint8_linear_504_3057)"/>
<path d="M8.00779 13.7279C7.96604 14.724 8.72026 15.5662 9.69239 15.609C10.6645 15.6518 11.4864 14.879 11.5282 13.8828C11.5699 12.8867 10.8157 12.0445 9.84358 12.0017C8.87145 11.9589 8.04954 12.7318 8.00779 13.7279Z" fill="url(#paint9_linear_504_3057)" fill-opacity="0.2"/>
<path d="M4.55861 14.2119C4.52769 14.9498 5.08637 15.5736 5.80646 15.6053C6.52656 15.637 7.13538 15.0645 7.16631 14.3267C7.19723 13.5888 6.63855 12.9649 5.91846 12.9332C5.19836 12.9015 4.58954 13.474 4.55861 14.2119Z" fill="url(#paint10_linear_504_3057)"/>
<path d="M4.55861 14.2119C4.52769 14.9498 5.08637 15.5736 5.80646 15.6053C6.52656 15.637 7.13538 15.0645 7.16631 14.3267C7.19723 13.5888 6.63855 12.9649 5.91846 12.9332C5.19836 12.9015 4.58954 13.474 4.55861 14.2119Z" fill="url(#paint11_linear_504_3057)" fill-opacity="0.2"/>
<path d="M1.71444 15.8435C1.68544 16.5353 2.20921 17.1202 2.88429 17.1499C3.55938 17.1796 4.13015 16.6429 4.15915 15.9511C4.18814 15.2594 3.66438 14.6745 2.98929 14.6448C2.3142 14.6151 1.74343 15.1518 1.71444 15.8435Z" fill="url(#paint12_linear_504_3057)"/>
<path d="M1.71444 15.8435C1.68544 16.5353 2.20921 17.1202 2.88429 17.1499C3.55938 17.1796 4.13015 16.6429 4.15915 15.9511C4.18814 15.2594 3.66438 14.6745 2.98929 14.6448C2.3142 14.6151 1.74343 15.1518 1.71444 15.8435Z" fill="url(#paint13_linear_504_3057)" fill-opacity="0.2"/>
<path d="M0.00105606 18.5455C-0.0256175 19.182 0.456245 19.72 1.07733 19.7474C1.69841 19.7747 2.22352 19.2809 2.25019 18.6445C2.27686 18.0081 1.795 17.47 1.17392 17.4427C0.552839 17.4154 0.0277296 17.9091 0.00105606 18.5455Z" fill="url(#paint14_linear_504_3057)"/>
<path d="M0.00105606 18.5455C-0.0256175 19.182 0.456245 19.72 1.07733 19.7474C1.69841 19.7747 2.22352 19.2809 2.25019 18.6445C2.27686 18.0081 1.795 17.47 1.17392 17.4427C0.552839 17.4154 0.0277296 17.9091 0.00105606 18.5455Z" fill="url(#paint15_linear_504_3057)" fill-opacity="0.2"/>
<path d="M9.22034 29.6959C6.02297 30.9663 4.17959 26.8542 3.5434 24.5641C3.29522 23.8788 2.76037 22.1069 2.98876 20.1344C3.21714 18.1619 5.68042 15.7882 8.53521 15.9052C11.39 16.0222 11.8794 18.8472 10.0197 20.8699C8.16001 22.8925 8.91039 23.7785 9.77498 24.6811C10.6396 25.5838 12.4177 28.4255 9.22034 29.6959Z" fill="url(#paint16_linear_504_3057)"/>
<path d="M9.22034 29.6959C6.02297 30.9663 4.17959 26.8542 3.5434 24.5641C3.29522 23.8788 2.76037 22.1069 2.98876 20.1344C3.21714 18.1619 5.68042 15.7882 8.53521 15.9052C11.39 16.0222 11.8794 18.8472 10.0197 20.8699C8.16001 22.8925 8.91039 23.7785 9.77498 24.6811C10.6396 25.5838 12.4177 28.4255 9.22034 29.6959Z" fill="url(#paint17_linear_504_3057)" fill-opacity="0.2"/>
<path d="M14.3862 31.712C17.532 33.1112 19.5329 29.0771 20.2571 26.8147C20.5316 26.1399 21.1345 24.3911 20.9826 22.4109C20.8306 20.4307 18.4611 17.9589 15.604 17.9599C12.7469 17.961 12.1487 20.7639 13.9287 22.8604C15.7087 24.957 14.9247 25.8117 14.0259 26.6786C13.1271 27.5455 11.2405 30.3128 14.3862 31.712Z" fill="url(#paint18_linear_504_3057)"/>
<path d="M14.3862 31.712C17.532 33.1112 19.5329 29.0771 20.2571 26.8147C20.5316 26.1399 21.1345 24.3911 20.9826 22.4109C20.8306 20.4307 18.4611 17.9589 15.604 17.9599C12.7469 17.961 12.1487 20.7639 13.9287 22.8604C15.7087 24.957 14.9247 25.8117 14.0259 26.6786C13.1271 27.5455 11.2405 30.3128 14.3862 31.712Z" fill="url(#paint19_linear_504_3057)" fill-opacity="0.2"/>
<path d="M37.732 10.62C37.076 10.62 36.448 10.528 35.848 10.344C35.248 10.152 34.772 9.908 34.42 9.612L34.96 8.4C35.296 8.664 35.712 8.884 36.208 9.06C36.704 9.236 37.212 9.324 37.732 9.324C38.172 9.324 38.528 9.276 38.8 9.18C39.072 9.084 39.272 8.956 39.4 8.796C39.528 8.628 39.592 8.44 39.592 8.232C39.592 7.976 39.5 7.772 39.316 7.62C39.132 7.46 38.892 7.336 38.596 7.248C38.308 7.152 37.984 7.064 37.624 6.984C37.272 6.904 36.916 6.812 36.556 6.708C36.204 6.596 35.88 6.456 35.584 6.288C35.296 6.112 35.06 5.88 34.876 5.592C34.692 5.304 34.6 4.936 34.6 4.488C34.6 4.032 34.72 3.616 34.96 3.24C35.208 2.856 35.58 2.552 36.076 2.328C36.58 2.096 37.216 1.98 37.984 1.98C38.488 1.98 38.988 2.044 39.484 2.172C39.98 2.3 40.412 2.484 40.78 2.724L40.288 3.936C39.912 3.712 39.524 3.548 39.124 3.444C38.724 3.332 38.34 3.276 37.972 3.276C37.54 3.276 37.188 3.328 36.916 3.432C36.652 3.536 36.456 3.672 36.328 3.84C36.208 4.008 36.148 4.2 36.148 4.416C36.148 4.672 36.236 4.88 36.412 5.04C36.596 5.192 36.832 5.312 37.12 5.4C37.416 5.488 37.744 5.576 38.104 5.664C38.464 5.744 38.82 5.836 39.172 5.94C39.532 6.044 39.856 6.18 40.144 6.348C40.44 6.516 40.676 6.744 40.852 7.032C41.036 7.32 41.128 7.684 41.128 8.124C41.128 8.572 41.004 8.988 40.756 9.372C40.516 9.748 40.144 10.052 39.64 10.284C39.136 10.508 38.5 10.62 37.732 10.62ZM44.9429 10.584C44.2389 10.584 43.6949 10.404 43.3109 10.044C42.9269 9.676 42.7349 9.136 42.7349 8.424V2.676H44.2349V8.388C44.2349 8.692 44.3109 8.928 44.4629 9.096C44.6229 9.264 44.8429 9.348 45.1229 9.348C45.4589 9.348 45.7389 9.26 45.9629 9.084L46.3829 10.152C46.2069 10.296 45.9909 10.404 45.7349 10.476C45.4789 10.548 45.2149 10.584 44.9429 10.584ZM41.6789 5.34V4.14H45.9509V5.34H41.6789ZM50.4179 10.584C49.7059 10.584 49.0819 10.444 48.5459 10.164C48.0179 9.876 47.6059 9.484 47.3099 8.988C47.0219 8.492 46.8779 7.928 46.8779 7.296C46.8779 6.656 47.0179 6.092 47.2979 5.604C47.5859 5.108 47.9779 4.72 48.4739 4.44C48.9779 4.16 49.5499 4.02 50.1899 4.02C50.8139 4.02 51.3699 4.156 51.8579 4.428C52.3459 4.7 52.7299 5.084 53.0099 5.58C53.2899 6.076 53.4299 6.66 53.4299 7.332C53.4299 7.396 53.4259 7.468 53.4179 7.548C53.4179 7.628 53.4139 7.704 53.4059 7.776H48.0659V6.78H52.6139L52.0259 7.092C52.0339 6.724 51.9579 6.4 51.7979 6.12C51.6379 5.84 51.4179 5.62 51.1379 5.46C50.8659 5.3 50.5499 5.22 50.1899 5.22C49.8219 5.22 49.4979 5.3 49.2179 5.46C48.9459 5.62 48.7299 5.844 48.5699 6.132C48.4179 6.412 48.3419 6.744 48.3419 7.128V7.368C48.3419 7.752 48.4299 8.092 48.6059 8.388C48.7819 8.684 49.0299 8.912 49.3499 9.072C49.6699 9.232 50.0379 9.312 50.4539 9.312C50.8139 9.312 51.1379 9.256 51.4259 9.144C51.7139 9.032 51.9699 8.856 52.1939 8.616L52.9979 9.54C52.7099 9.876 52.3459 10.136 51.9059 10.32C51.4739 10.496 50.9779 10.584 50.4179 10.584ZM58.4227 10.584C57.9027 10.584 57.4267 10.464 56.9947 10.224C56.5707 9.984 56.2307 9.624 55.9747 9.144C55.7267 8.656 55.6027 8.04 55.6027 7.296C55.6027 6.544 55.7227 5.928 55.9627 5.448C56.2107 4.968 56.5467 4.612 56.9707 4.38C57.3947 4.14 57.8787 4.02 58.4227 4.02C59.0547 4.02 59.6107 4.156 60.0907 4.428C60.5787 4.7 60.9627 5.08 61.2427 5.568C61.5307 6.056 61.6747 6.632 61.6747 7.296C61.6747 7.96 61.5307 8.54 61.2427 9.036C60.9627 9.524 60.5787 9.904 60.0907 10.176C59.6107 10.448 59.0547 10.584 58.4227 10.584ZM54.8707 12.828V4.092H56.2987V5.604L56.2507 7.308L56.3707 9.012V12.828H54.8707ZM58.2547 9.3C58.6147 9.3 58.9347 9.22 59.2147 9.06C59.5027 8.9 59.7307 8.668 59.8987 8.364C60.0667 8.06 60.1507 7.704 60.1507 7.296C60.1507 6.88 60.0667 6.524 59.8987 6.228C59.7307 5.924 59.5027 5.692 59.2147 5.532C58.9347 5.372 58.6147 5.292 58.2547 5.292C57.8947 5.292 57.5707 5.372 57.2827 5.532C56.9947 5.692 56.7667 5.924 56.5987 6.228C56.4307 6.524 56.3467 6.88 56.3467 7.296C56.3467 7.704 56.4307 8.06 56.5987 8.364C56.7667 8.668 56.9947 8.9 57.2827 9.06C57.5707 9.22 57.8947 9.3 58.2547 9.3ZM65.0773 10.584C64.5413 10.584 64.0253 10.516 63.5293 10.38C63.0413 10.236 62.6533 10.064 62.3653 9.864L62.9413 8.724C63.2293 8.908 63.5733 9.06 63.9733 9.18C64.3733 9.3 64.7733 9.36 65.1733 9.36C65.6453 9.36 65.9853 9.296 66.1933 9.168C66.4093 9.04 66.5173 8.868 66.5173 8.652C66.5173 8.476 66.4453 8.344 66.3013 8.256C66.1573 8.16 65.9693 8.088 65.7373 8.04C65.5053 7.992 65.2453 7.948 64.9573 7.908C64.6773 7.868 64.3933 7.816 64.1053 7.752C63.8253 7.68 63.5693 7.58 63.3373 7.452C63.1053 7.316 62.9173 7.136 62.7733 6.912C62.6293 6.688 62.5573 6.392 62.5573 6.024C62.5573 5.616 62.6733 5.264 62.9053 4.968C63.1373 4.664 63.4613 4.432 63.8773 4.272C64.3013 4.104 64.8013 4.02 65.3773 4.02C65.8093 4.02 66.2453 4.068 66.6853 4.164C67.1253 4.26 67.4893 4.396 67.7773 4.572L67.2013 5.712C66.8973 5.528 66.5893 5.404 66.2773 5.34C65.9733 5.268 65.6693 5.232 65.3653 5.232C64.9093 5.232 64.5693 5.3 64.3453 5.436C64.1293 5.572 64.0213 5.744 64.0213 5.952C64.0213 6.144 64.0933 6.288 64.2373 6.384C64.3813 6.48 64.5693 6.556 64.8013 6.612C65.0333 6.668 65.2893 6.716 65.5693 6.756C65.8573 6.788 66.1413 6.84 66.4213 6.912C66.7013 6.984 66.9573 7.084 67.1893 7.212C67.4293 7.332 67.6213 7.504 67.7653 7.728C67.9093 7.952 67.9813 8.244 67.9813 8.604C67.9813 9.004 67.8613 9.352 67.6213 9.648C67.3893 9.944 67.0573 10.176 66.6253 10.344C66.1933 10.504 65.6773 10.584 65.0773 10.584Z" fill="white"/>
<path d="M34.56 28V26.608L39.008 22.384C39.3813 22.032 39.6587 21.7227 39.84 21.456C40.0213 21.1893 40.1387 20.944 40.192 20.72C40.256 20.4853 40.288 20.2667 40.288 20.064C40.288 19.552 40.112 19.1573 39.76 18.88C39.408 18.592 38.8907 18.448 38.208 18.448C37.664 18.448 37.168 18.544 36.72 18.736C36.2827 18.928 35.904 19.2213 35.584 19.616L34.128 18.496C34.5653 17.9093 35.152 17.456 35.888 17.136C36.6347 16.8053 37.4667 16.64 38.384 16.64C39.1947 16.64 39.8987 16.7733 40.496 17.04C41.104 17.296 41.568 17.664 41.888 18.144C42.2187 18.624 42.384 19.1947 42.384 19.856C42.384 20.2187 42.336 20.5813 42.24 20.944C42.144 21.296 41.9627 21.6693 41.696 22.064C41.4293 22.4587 41.04 22.9013 40.528 23.392L36.704 27.024L36.272 26.24H42.816V28H34.56ZM44.2528 30.416L45.1808 26.88L45.4528 28.064C45.0794 28.064 44.7648 27.952 44.5088 27.728C44.2634 27.4933 44.1408 27.1787 44.1408 26.784C44.1408 26.3787 44.2634 26.0587 44.5088 25.824C44.7648 25.5787 45.0741 25.456 45.4368 25.456C45.8101 25.456 46.1194 25.5787 46.3648 25.824C46.6101 26.0693 46.7328 26.3893 46.7328 26.784C46.7328 26.8907 46.7221 27.008 46.7008 27.136C46.6794 27.2533 46.6421 27.392 46.5888 27.552C46.5461 27.712 46.4714 27.9147 46.3648 28.16L45.5488 30.416H44.2528ZM51.7552 28.16C50.9659 28.16 50.1926 28.048 49.4353 27.824C48.6886 27.5893 48.0593 27.2693 47.5473 26.864L48.4433 25.248C48.8486 25.5787 49.3393 25.8453 49.9153 26.048C50.4913 26.2507 51.0939 26.352 51.7233 26.352C52.4699 26.352 53.0513 26.2027 53.4673 25.904C53.8833 25.5947 54.0913 25.1787 54.0913 24.656C54.0913 24.144 53.8993 23.7387 53.5153 23.44C53.1313 23.1413 52.5126 22.992 51.6593 22.992H50.6353V21.568L53.8353 17.76L54.1073 18.544H48.0913V16.8H55.7233V18.192L52.5233 22L51.4353 21.36H52.0593C53.4353 21.36 54.4646 21.6693 55.1473 22.288C55.8406 22.896 56.1873 23.68 56.1873 24.64C56.1873 25.2693 56.0273 25.8507 55.7073 26.384C55.3873 26.9173 54.8966 27.3493 54.2353 27.68C53.5846 28 52.7579 28.16 51.7552 28.16ZM57.3878 25.456V24.016L62.9078 16.8H65.1318L59.6918 24.016L58.6518 23.696H67.5318V25.456H57.3878ZM63.5318 28V25.456L63.5958 23.696V21.44H65.5478V28H63.5318ZM73.0791 28.16C72.1938 28.16 71.3938 27.936 70.6791 27.488C69.9751 27.04 69.4205 26.3893 69.0151 25.536C68.6098 24.672 68.4071 23.6267 68.4071 22.4C68.4071 21.1733 68.6098 20.1333 69.0151 19.28C69.4205 18.416 69.9751 17.76 70.6791 17.312C71.3938 16.864 72.1938 16.64 73.0791 16.64C73.9751 16.64 74.7751 16.864 75.4791 17.312C76.1831 17.76 76.7378 18.416 77.1431 19.28C77.5591 20.1333 77.7671 21.1733 77.7671 22.4C77.7671 23.6267 77.5591 24.672 77.1431 25.536C76.7378 26.3893 76.1831 27.04 75.4791 27.488C74.7751 27.936 73.9751 28.16 73.0791 28.16ZM73.0791 26.352C73.6018 26.352 74.0551 26.2133 74.4391 25.936C74.8231 25.648 75.1218 25.2107 75.3351 24.624C75.5591 24.0373 75.6711 23.296 75.6711 22.4C75.6711 21.4933 75.5591 20.752 75.3351 20.176C75.1218 19.5893 74.8231 19.1573 74.4391 18.88C74.0551 18.592 73.6018 18.448 73.0791 18.448C72.5778 18.448 72.1298 18.592 71.7351 18.88C71.3511 19.1573 71.0471 19.5893 70.8231 20.176C70.6098 20.752 70.5031 21.4933 70.5031 22.4C70.5031 23.296 70.6098 24.0373 70.8231 24.624C71.0471 25.2107 71.3511 25.648 71.7351 25.936C72.1298 26.2133 72.5778 26.352 73.0791 26.352Z" fill="white"/>
<path d="M38.21 42.06C37.6767 42.06 37.1833 41.9733 36.73 41.8C36.2833 41.62 35.8933 41.37 35.56 41.05C35.2333 40.73 34.9767 40.3533 34.79 39.92C34.61 39.4867 34.52 39.0133 34.52 38.5C34.52 37.9867 34.61 37.5133 34.79 37.08C34.9767 36.6467 35.2367 36.27 35.57 35.95C35.9033 35.63 36.2933 35.3833 36.74 35.21C37.1933 35.03 37.6867 34.94 38.22 34.94C38.7533 34.94 39.24 35.0233 39.68 35.19C40.1267 35.3567 40.5067 35.61 40.82 35.95L40.36 36.42C40.0667 36.1267 39.7433 35.9167 39.39 35.79C39.0367 35.6633 38.6567 35.6 38.25 35.6C37.8167 35.6 37.4167 35.6733 37.05 35.82C36.69 35.96 36.3733 36.1633 36.1 36.43C35.8333 36.69 35.6233 36.9967 35.47 37.35C35.3233 37.6967 35.25 38.08 35.25 38.5C35.25 38.9133 35.3233 39.2967 35.47 39.65C35.6233 40.0033 35.8333 40.3133 36.1 40.58C36.3733 40.84 36.69 41.0433 37.05 41.19C37.4167 41.33 37.8133 41.4 38.24 41.4C38.64 41.4 39.0167 41.34 39.37 41.22C39.73 41.1 40.06 40.8967 40.36 40.61L40.78 41.17C40.4467 41.4633 40.0567 41.6867 39.61 41.84C39.1633 41.9867 38.6967 42.06 38.21 42.06ZM40.07 41.08V38.5H40.78V41.17L40.07 41.08ZM44.8644 42.05C44.3577 42.05 43.901 41.9367 43.4944 41.71C43.0944 41.4767 42.7777 41.16 42.5444 40.76C42.311 40.3533 42.1944 39.89 42.1944 39.37C42.1944 38.8433 42.311 38.38 42.5444 37.98C42.7777 37.58 43.0944 37.2667 43.4944 37.04C43.8944 36.8133 44.351 36.7 44.8644 36.7C45.3844 36.7 45.8444 36.8133 46.2444 37.04C46.651 37.2667 46.9677 37.58 47.1944 37.98C47.4277 38.38 47.5444 38.8433 47.5444 39.37C47.5444 39.89 47.4277 40.3533 47.1944 40.76C46.9677 41.16 46.651 41.4767 46.2444 41.71C45.8377 41.9367 45.3777 42.05 44.8644 42.05ZM44.8644 41.42C45.2444 41.42 45.581 41.3367 45.8744 41.17C46.1677 40.9967 46.3977 40.7567 46.5644 40.45C46.7377 40.1367 46.8244 39.7767 46.8244 39.37C46.8244 38.9567 46.7377 38.5967 46.5644 38.29C46.3977 37.9833 46.1677 37.7467 45.8744 37.58C45.581 37.4067 45.2477 37.32 44.8744 37.32C44.501 37.32 44.1677 37.4067 43.8744 37.58C43.581 37.7467 43.3477 37.9833 43.1744 38.29C43.001 38.5967 42.9144 38.9567 42.9144 39.37C42.9144 39.7767 43.001 40.1367 43.1744 40.45C43.3477 40.7567 43.581 40.9967 43.8744 41.17C44.1677 41.3367 44.4977 41.42 44.8644 41.42ZM52.2546 42V40.84L52.2246 40.65V38.71C52.2246 38.2633 52.0979 37.92 51.8446 37.68C51.5979 37.44 51.2279 37.32 50.7346 37.32C50.3946 37.32 50.0713 37.3767 49.7646 37.49C49.4579 37.6033 49.1979 37.7533 48.9846 37.94L48.6646 37.41C48.9313 37.1833 49.2513 37.01 49.6246 36.89C49.9979 36.7633 50.3913 36.7 50.8046 36.7C51.4846 36.7 52.0079 36.87 52.3746 37.21C52.7479 37.5433 52.9346 38.0533 52.9346 38.74V42H52.2546ZM50.4446 42.05C50.0513 42.05 49.7079 41.9867 49.4146 41.86C49.1279 41.7267 48.9079 41.5467 48.7546 41.32C48.6013 41.0867 48.5246 40.82 48.5246 40.52C48.5246 40.2467 48.5879 40 48.7146 39.78C48.8479 39.5533 49.0613 39.3733 49.3546 39.24C49.6546 39.1 50.0546 39.03 50.5546 39.03H52.3646V39.56H50.5746C50.0679 39.56 49.7146 39.65 49.5146 39.83C49.3213 40.01 49.2246 40.2333 49.2246 40.5C49.2246 40.8 49.3413 41.04 49.5746 41.22C49.8079 41.4 50.1346 41.49 50.5546 41.49C50.9546 41.49 51.2979 41.4 51.5846 41.22C51.8779 41.0333 52.0913 40.7667 52.2246 40.42L52.3846 40.91C52.2513 41.2567 52.0179 41.5333 51.6846 41.74C51.3579 41.9467 50.9446 42.05 50.4446 42.05ZM54.863 42V34.58H55.573V42H54.863ZM57.6186 37.79C57.4719 37.79 57.3453 37.7367 57.2386 37.63C57.1386 37.5233 57.0886 37.3933 57.0886 37.24C57.0886 37.08 57.1386 36.95 57.2386 36.85C57.3453 36.75 57.4719 36.7 57.6186 36.7C57.7653 36.7 57.8886 36.75 57.9886 36.85C58.0953 36.95 58.1486 37.08 58.1486 37.24C58.1486 37.3933 58.0953 37.5233 57.9886 37.63C57.8886 37.7367 57.7653 37.79 57.6186 37.79ZM57.6186 42.05C57.4719 42.05 57.3453 41.9967 57.2386 41.89C57.1386 41.7833 57.0886 41.6533 57.0886 41.5C57.0886 41.34 57.1386 41.21 57.2386 41.11C57.3453 41.01 57.4719 40.96 57.6186 40.96C57.7653 40.96 57.8886 41.01 57.9886 41.11C58.0953 41.21 58.1486 41.34 58.1486 41.5C58.1486 41.6533 58.0953 41.7833 57.9886 41.89C57.8886 41.9967 57.7653 42.05 57.6186 42.05ZM64.0249 42.06C63.5249 42.06 63.0483 41.98 62.5949 41.82C62.1416 41.6533 61.7816 41.4333 61.5149 41.16L61.8649 40.59C62.0849 40.8233 62.3849 41.0167 62.7649 41.17C63.1516 41.3233 63.5683 41.4 64.0149 41.4C64.6083 41.4 65.0583 41.27 65.3649 41.01C65.6783 40.7433 65.8349 40.3967 65.8349 39.97C65.8349 39.67 65.7616 39.4133 65.6149 39.2C65.4749 38.98 65.2349 38.81 64.8949 38.69C64.5549 38.57 64.0883 38.51 63.4949 38.51H62.0049L62.3649 35H66.1949V35.64H62.6549L63.0249 35.29L62.7149 38.23L62.3449 37.87H63.6549C64.3616 37.87 64.9283 37.9567 65.3549 38.13C65.7816 38.3033 66.0883 38.5467 66.2749 38.86C66.4683 39.1667 66.5649 39.5267 66.5649 39.94C66.5649 40.3333 66.4716 40.6933 66.2849 41.02C66.0983 41.34 65.8183 41.5933 65.4449 41.78C65.0716 41.9667 64.5983 42.06 64.0249 42.06ZM67.519 43.46L67.959 41.61L68.039 42.04C67.8857 42.04 67.7557 41.99 67.649 41.89C67.549 41.79 67.499 41.66 67.499 41.5C67.499 41.34 67.549 41.21 67.649 41.11C67.7557 41.01 67.8823 40.96 68.029 40.96C68.1823 40.96 68.3057 41.0133 68.399 41.12C68.499 41.2267 68.549 41.3533 68.549 41.5C68.549 41.5533 68.5457 41.6067 68.539 41.66C68.5323 41.7133 68.519 41.7733 68.499 41.84C68.479 41.9067 68.4523 41.9867 68.419 42.08L67.999 43.46H67.519ZM72.2807 42.06C71.7407 42.06 71.2607 41.92 70.8407 41.64C70.4207 41.3533 70.0907 40.9467 69.8507 40.42C69.6107 39.8867 69.4907 39.2467 69.4907 38.5C69.4907 37.7533 69.6107 37.1167 69.8507 36.59C70.0907 36.0567 70.4207 35.65 70.8407 35.37C71.2607 35.0833 71.7407 34.94 72.2807 34.94C72.8207 34.94 73.3007 35.0833 73.7207 35.37C74.1407 35.65 74.4707 36.0567 74.7107 36.59C74.9574 37.1167 75.0807 37.7533 75.0807 38.5C75.0807 39.2467 74.9574 39.8867 74.7107 40.42C74.4707 40.9467 74.1407 41.3533 73.7207 41.64C73.3007 41.92 72.8207 42.06 72.2807 42.06ZM72.2807 41.4C72.694 41.4 73.054 41.29 73.3607 41.07C73.6674 40.8433 73.9074 40.5167 74.0807 40.09C74.254 39.6567 74.3407 39.1267 74.3407 38.5C74.3407 37.8733 74.254 37.3467 74.0807 36.92C73.9074 36.4867 73.6674 36.16 73.3607 35.94C73.054 35.7133 72.694 35.6 72.2807 35.6C71.8807 35.6 71.524 35.7133 71.2107 35.94C70.8974 36.16 70.654 36.4867 70.4807 36.92C70.3074 37.3467 70.2207 37.8733 70.2207 38.5C70.2207 39.1267 70.3074 39.6567 70.4807 40.09C70.654 40.5167 70.8974 40.8433 71.2107 41.07C71.524 41.29 71.8807 41.4 72.2807 41.4ZM78.9018 42.06C78.3618 42.06 77.8818 41.92 77.4618 41.64C77.0418 41.3533 76.7118 40.9467 76.4718 40.42C76.2318 39.8867 76.1118 39.2467 76.1118 38.5C76.1118 37.7533 76.2318 37.1167 76.4718 36.59C76.7118 36.0567 77.0418 35.65 77.4618 35.37C77.8818 35.0833 78.3618 34.94 78.9018 34.94C79.4418 34.94 79.9218 35.0833 80.3418 35.37C80.7618 35.65 81.0918 36.0567 81.3318 36.59C81.5785 37.1167 81.7018 37.7533 81.7018 38.5C81.7018 39.2467 81.5785 39.8867 81.3318 40.42C81.0918 40.9467 80.7618 41.3533 80.3418 41.64C79.9218 41.92 79.4418 42.06 78.9018 42.06ZM78.9018 41.4C79.3151 41.4 79.6751 41.29 79.9818 41.07C80.2885 40.8433 80.5285 40.5167 80.7018 40.09C80.8751 39.6567 80.9618 39.1267 80.9618 38.5C80.9618 37.8733 80.8751 37.3467 80.7018 36.92C80.5285 36.4867 80.2885 36.16 79.9818 35.94C79.6751 35.7133 79.3151 35.6 78.9018 35.6C78.5018 35.6 78.1451 35.7133 77.8318 35.94C77.5185 36.16 77.2751 36.4867 77.1018 36.92C76.9285 37.3467 76.8418 37.8733 76.8418 38.5C76.8418 39.1267 76.9285 39.6567 77.1018 40.09C77.2751 40.5167 77.5185 40.8433 77.8318 41.07C78.1451 41.29 78.5018 41.4 78.9018 41.4ZM85.5229 42.06C84.9829 42.06 84.5029 41.92 84.0829 41.64C83.6629 41.3533 83.3329 40.9467 83.0929 40.42C82.8529 39.8867 82.7329 39.2467 82.7329 38.5C82.7329 37.7533 82.8529 37.1167 83.0929 36.59C83.3329 36.0567 83.6629 35.65 84.0829 35.37C84.5029 35.0833 84.9829 34.94 85.5229 34.94C86.0629 34.94 86.5429 35.0833 86.9629 35.37C87.3829 35.65 87.7129 36.0567 87.9529 36.59C88.1996 37.1167 88.3229 37.7533 88.3229 38.5C88.3229 39.2467 88.1996 39.8867 87.9529 40.42C87.7129 40.9467 87.3829 41.3533 86.9629 41.64C86.5429 41.92 86.0629 42.06 85.5229 42.06ZM85.5229 41.4C85.9362 41.4 86.2962 41.29 86.6029 41.07C86.9096 40.8433 87.1496 40.5167 87.3229 40.09C87.4962 39.6567 87.5829 39.1267 87.5829 38.5C87.5829 37.8733 87.4962 37.3467 87.3229 36.92C87.1496 36.4867 86.9096 36.16 86.6029 35.94C86.2962 35.7133 85.9362 35.6 85.5229 35.6C85.1229 35.6 84.7662 35.7133 84.4529 35.94C84.1396 36.16 83.8962 36.4867 83.7229 36.92C83.5496 37.3467 83.4629 37.8733 83.4629 38.5C83.4629 39.1267 83.5496 39.6567 83.7229 40.09C83.8962 40.5167 84.1396 40.8433 84.4529 41.07C84.7662 41.29 85.1229 41.4 85.5229 41.4Z" fill="white"/>
<rect y="54" width="123" height="4" rx="2" fill="white" fill-opacity="0.45"/>
<rect x="53.5" y="54" width="4" height="53.5" rx="2" transform="rotate(90 53.5 54)" fill="url(#paint20_linear_504_3057)"/>
<rect x="53.5" y="54" width="4" height="53.5" rx="2" transform="rotate(90 53.5 54)" fill="url(#paint21_linear_504_3057)" fill-opacity="0.2"/>
<defs>
<linearGradient id="paint0_linear_504_3057" x1="12" y1="12" x2="12" y2="32" gradientUnits="userSpaceOnUse">
<stop stop-color="#F2B731"/>
<stop offset="1" stop-color="#E96821"/>
</linearGradient>
<linearGradient id="paint1_linear_504_3057" x1="1.23077" y1="19.2897" x2="22.7392" y2="20.3013" gradientUnits="userSpaceOnUse">
<stop stop-color="#F1B530"/>
<stop offset="0.173389" stop-color="#C15F1D" stop-opacity="0.4"/>
<stop offset="0.487829" stop-color="#EC9E2B"/>
<stop offset="0.656892" stop-color="#DB8E27" stop-opacity="0.851635"/>
<stop offset="0.876705" stop-color="#C5661F" stop-opacity="0.6"/>
<stop offset="0.973562" stop-color="#DE9228"/>
</linearGradient>
<linearGradient id="paint2_linear_504_3057" x1="12" y1="12" x2="12" y2="32" gradientUnits="userSpaceOnUse">
<stop stop-color="#F2B731"/>
<stop offset="1" stop-color="#E96821"/>
</linearGradient>
<linearGradient id="paint3_linear_504_3057" x1="1.23077" y1="19.2897" x2="22.7392" y2="20.3013" gradientUnits="userSpaceOnUse">
<stop stop-color="#F1B530"/>
<stop offset="0.173389" stop-color="#C15F1D" stop-opacity="0.4"/>
<stop offset="0.487829" stop-color="#EC9E2B"/>
<stop offset="0.656892" stop-color="#DB8E27" stop-opacity="0.851635"/>
<stop offset="0.876705" stop-color="#C5661F" stop-opacity="0.6"/>
<stop offset="0.973562" stop-color="#DE9228"/>
</linearGradient>
<linearGradient id="paint4_linear_504_3057" x1="12" y1="12" x2="12" y2="32" gradientUnits="userSpaceOnUse">
<stop stop-color="#F2B731"/>
<stop offset="1" stop-color="#E96821"/>
</linearGradient>
<linearGradient id="paint5_linear_504_3057" x1="1.23077" y1="19.2897" x2="22.7392" y2="20.3013" gradientUnits="userSpaceOnUse">
<stop stop-color="#F1B530"/>
<stop offset="0.173389" stop-color="#C15F1D" stop-opacity="0.4"/>
<stop offset="0.487829" stop-color="#EC9E2B"/>
<stop offset="0.656892" stop-color="#DB8E27" stop-opacity="0.851635"/>
<stop offset="0.876705" stop-color="#C5661F" stop-opacity="0.6"/>
<stop offset="0.973562" stop-color="#DE9228"/>
</linearGradient>
<linearGradient id="paint6_linear_504_3057" x1="12" y1="12" x2="12" y2="32" gradientUnits="userSpaceOnUse">
<stop stop-color="#F2B731"/>
<stop offset="1" stop-color="#E96821"/>
</linearGradient>
<linearGradient id="paint7_linear_504_3057" x1="1.23077" y1="19.2897" x2="22.7392" y2="20.3013" gradientUnits="userSpaceOnUse">
<stop stop-color="#F1B530"/>
<stop offset="0.173389" stop-color="#C15F1D" stop-opacity="0.4"/>
<stop offset="0.487829" stop-color="#EC9E2B"/>
<stop offset="0.656892" stop-color="#DB8E27" stop-opacity="0.851635"/>
<stop offset="0.876705" stop-color="#C5661F" stop-opacity="0.6"/>
<stop offset="0.973562" stop-color="#DE9228"/>
</linearGradient>
<linearGradient id="paint8_linear_504_3057" x1="12" y1="12" x2="12" y2="32" gradientUnits="userSpaceOnUse">
<stop stop-color="#F2B731"/>
<stop offset="1" stop-color="#E96821"/>
</linearGradient>
<linearGradient id="paint9_linear_504_3057" x1="1.23077" y1="19.2897" x2="22.7392" y2="20.3013" gradientUnits="userSpaceOnUse">
<stop stop-color="#F1B530"/>
<stop offset="0.173389" stop-color="#C15F1D" stop-opacity="0.4"/>
<stop offset="0.487829" stop-color="#EC9E2B"/>
<stop offset="0.656892" stop-color="#DB8E27" stop-opacity="0.851635"/>
<stop offset="0.876705" stop-color="#C5661F" stop-opacity="0.6"/>
<stop offset="0.973562" stop-color="#DE9228"/>
</linearGradient>
<linearGradient id="paint10_linear_504_3057" x1="12" y1="12" x2="12" y2="32" gradientUnits="userSpaceOnUse">
<stop stop-color="#F2B731"/>
<stop offset="1" stop-color="#E96821"/>
</linearGradient>
<linearGradient id="paint11_linear_504_3057" x1="1.23077" y1="19.2897" x2="22.7392" y2="20.3013" gradientUnits="userSpaceOnUse">
<stop stop-color="#F1B530"/>
<stop offset="0.173389" stop-color="#C15F1D" stop-opacity="0.4"/>
<stop offset="0.487829" stop-color="#EC9E2B"/>
<stop offset="0.656892" stop-color="#DB8E27" stop-opacity="0.851635"/>
<stop offset="0.876705" stop-color="#C5661F" stop-opacity="0.6"/>
<stop offset="0.973562" stop-color="#DE9228"/>
</linearGradient>
<linearGradient id="paint12_linear_504_3057" x1="12" y1="12" x2="12" y2="32" gradientUnits="userSpaceOnUse">
<stop stop-color="#F2B731"/>
<stop offset="1" stop-color="#E96821"/>
</linearGradient>
<linearGradient id="paint13_linear_504_3057" x1="1.23077" y1="19.2897" x2="22.7392" y2="20.3013" gradientUnits="userSpaceOnUse">
<stop stop-color="#F1B530"/>
<stop offset="0.173389" stop-color="#C15F1D" stop-opacity="0.4"/>
<stop offset="0.487829" stop-color="#EC9E2B"/>
<stop offset="0.656892" stop-color="#DB8E27" stop-opacity="0.851635"/>
<stop offset="0.876705" stop-color="#C5661F" stop-opacity="0.6"/>
<stop offset="0.973562" stop-color="#DE9228"/>
</linearGradient>
<linearGradient id="paint14_linear_504_3057" x1="12" y1="12" x2="12" y2="32" gradientUnits="userSpaceOnUse">
<stop stop-color="#F2B731"/>
<stop offset="1" stop-color="#E96821"/>
</linearGradient>
<linearGradient id="paint15_linear_504_3057" x1="1.23077" y1="19.2897" x2="22.7392" y2="20.3013" gradientUnits="userSpaceOnUse">
<stop stop-color="#F1B530"/>
<stop offset="0.173389" stop-color="#C15F1D" stop-opacity="0.4"/>
<stop offset="0.487829" stop-color="#EC9E2B"/>
<stop offset="0.656892" stop-color="#DB8E27" stop-opacity="0.851635"/>
<stop offset="0.876705" stop-color="#C5661F" stop-opacity="0.6"/>
<stop offset="0.973562" stop-color="#DE9228"/>
</linearGradient>
<linearGradient id="paint16_linear_504_3057" x1="12" y1="12" x2="12" y2="32" gradientUnits="userSpaceOnUse">
<stop stop-color="#F2B731"/>
<stop offset="1" stop-color="#E96821"/>
</linearGradient>
<linearGradient id="paint17_linear_504_3057" x1="1.23077" y1="19.2897" x2="22.7392" y2="20.3013" gradientUnits="userSpaceOnUse">
<stop stop-color="#F1B530"/>
<stop offset="0.173389" stop-color="#C15F1D" stop-opacity="0.4"/>
<stop offset="0.487829" stop-color="#EC9E2B"/>
<stop offset="0.656892" stop-color="#DB8E27" stop-opacity="0.851635"/>
<stop offset="0.876705" stop-color="#C5661F" stop-opacity="0.6"/>
<stop offset="0.973562" stop-color="#DE9228"/>
</linearGradient>
<linearGradient id="paint18_linear_504_3057" x1="12" y1="12" x2="12" y2="32" gradientUnits="userSpaceOnUse">
<stop stop-color="#F2B731"/>
<stop offset="1" stop-color="#E96821"/>
</linearGradient>
<linearGradient id="paint19_linear_504_3057" x1="1.23077" y1="19.2897" x2="22.7392" y2="20.3013" gradientUnits="userSpaceOnUse">
<stop stop-color="#F1B530"/>
<stop offset="0.173389" stop-color="#C15F1D" stop-opacity="0.4"/>
<stop offset="0.487829" stop-color="#EC9E2B"/>
<stop offset="0.656892" stop-color="#DB8E27" stop-opacity="0.851635"/>
<stop offset="0.876705" stop-color="#C5661F" stop-opacity="0.6"/>
<stop offset="0.973562" stop-color="#DE9228"/>
</linearGradient>
<linearGradient id="paint20_linear_504_3057" x1="55.5" y1="54" x2="55.5" y2="107.5" gradientUnits="userSpaceOnUse">
<stop stop-color="#F2B731"/>
<stop offset="1" stop-color="#E96821"/>
</linearGradient>
<linearGradient id="paint21_linear_504_3057" x1="53.7051" y1="73.5" x2="57.2978" y2="73.5105" gradientUnits="userSpaceOnUse">
<stop stop-color="#F1B530"/>
<stop offset="0.173389" stop-color="#C15F1D" stop-opacity="0.4"/>
<stop offset="0.487829" stop-color="#EC9E2B"/>
<stop offset="0.656892" stop-color="#DB8E27" stop-opacity="0.851635"/>
<stop offset="0.876705" stop-color="#C5661F" stop-opacity="0.6"/>
<stop offset="0.973562" stop-color="#DE9228"/>
</linearGradient>
</defs>
</svg>
