<?xml version="1.0" encoding="UTF-8"?><svg id="a" xmlns="http://www.w3.org/2000/svg" xmlns:xlink="http://www.w3.org/1999/xlink" viewBox="0 0 360 567.333"><defs><style>.q,.r{fill:none;}.s{fill:url(#k);}.t{fill:url(#j);}.u{fill:url(#i);}.v{fill:url(#h);}.w{fill:url(#m);}.x{fill:url(#n);}.y{fill:url(#l);}.z{fill:url(#g);}.aa{fill:url(#f);}.ab{fill:url(#e);}.ac{fill:rgba(255,255,250,.8);}.ad{fill:#fffffa;}.ae{fill:url(#c);}.ae,.af{fill-opacity:.4;}.af{fill:url(#o);}.ag{fill:#66247f;}.ah{fill:#fff;}.ai{fill:url(#d);fill-rule:evenodd;}.aj{clip-path:url(#b);}.r{stroke:url(#p);stroke-opacity:.6;}</style><clipPath id="b"><rect class="q" x="24" y="235.667" width="312" height="96" rx="24" ry="24"/></clipPath><linearGradient id="c" x1="21.519" y1="876.741" x2="335.427" y2="855.988" gradientTransform="translate(0 1149.93) scale(1 -1)" gradientUnits="userSpaceOnUse"><stop offset="0" stop-color="#fff" stop-opacity=".5"/><stop offset="1" stop-color="#fff" stop-opacity=".2"/></linearGradient><linearGradient id="d" x1="79.552" y1="898.264" x2="79.552" y2="834.264" gradientTransform="translate(0 1149.93) scale(1 -1)" gradientUnits="userSpaceOnUse"><stop offset="0" stop-color="#fdc150"/><stop offset="1" stop-color="#ff834d"/></linearGradient><linearGradient id="e" x1="114.457" y1="864.264" x2="114.457" xlink:href="#d"/><linearGradient id="f" x1="119.958" y1="864.264" x2="119.958" xlink:href="#d"/><linearGradient id="g" x1="124.002" y1="864.264" x2="124.002" xlink:href="#d"/><linearGradient id="h" x1="126.405" y1="864.264" x2="126.405" xlink:href="#d"/><linearGradient id="i" x1="107.838" y1="864.264" x2="107.838" y2="834.264" xlink:href="#d"/><linearGradient id="j" x1="102.305" y1="864.264" x2="102.305" y2="834.264" xlink:href="#d"/><linearGradient id="k" x1="98.16" y1="864.264" x2="98.16" xlink:href="#d"/><linearGradient id="l" x1="95.595" y1="864.264" x2="95.595" y2="834.264" xlink:href="#d"/><linearGradient id="m" x1="103.956" y1="864.264" x2="103.956" xlink:href="#d"/><linearGradient id="n" x1="117.833" y1="864.264" x2="117.833" y2="834.264" xlink:href="#d"/><linearGradient id="o" x1="187.468" y1="866.333" x2="196.532" y2="822.194" xlink:href="#c"/><linearGradient id="p" x1="187.468" y1="866.333" x2="196.532" y2="822.194" gradientTransform="translate(0 1149.93) scale(1 -1)" gradientUnits="userSpaceOnUse"><stop offset="0" stop-color="#fff" stop-opacity=".6"/><stop offset="1" stop-color="#fff" stop-opacity=".2"/></linearGradient></defs><rect class="ag" x="24" y="235.667" width="312" height="96" rx="25" ry="25"/><g class="aj"><rect class="ae" x="24" y="235.667" width="312" height="96" rx="24" ry="24"/><path class="ah" d="M71.728,285.667v-12.8l1.4,1.4h-4.2v-2.6h6.04v14h-3.24ZM77.24,282.727v-2.18l6.6-8.88h3.4l-6.46,8.88-1.58-.46h11.02v2.64h-12.98ZM84.78,285.667v-2.94l.1-2.64v-2.62h3.06v8.2h-3.16ZM68.315,294.667v-7h2.95c.747,0,1.403.147,1.97.44.573.293,1.017.703,1.33,1.23.32.527.48,1.137.48,1.83s-.16,1.303-.48,1.83c-.313.527-.757.937-1.33,1.23-.567.293-1.223.44-1.97.44h-2.95ZM69.315,293.797h1.89c.58,0,1.08-.11,1.5-.33.427-.22.757-.527.99-.92.233-.4.35-.86.35-1.38,0-.527-.117-.987-.35-1.38-.233-.393-.563-.7-.99-.92-.42-.22-.92-.33-1.5-.33h-1.89v5.26ZM79.726,294.667v-1.12l-.05-.21v-1.91c0-.407-.12-.72-.36-.94-.233-.227-.587-.34-1.06-.34-.313,0-.62.053-.92.16-.3.1-.553.237-.76.41l-.4-.72c.273-.22.6-.387.98-.5.387-.12.79-.18,1.21-.18.727,0,1.287.177,1.68.53.393.353.59.893.59,1.62v3.2h-.91ZM77.986,294.727c-.393,0-.74-.067-1.04-.2-.293-.133-.52-.317-.68-.55-.16-.24-.24-.51-.24-.81,0-.287.067-.547.2-.78.14-.233.363-.42.67-.56.313-.14.733-.21,1.26-.21h1.68v.69h-1.64c-.48,0-.803.08-.97.24-.167.16-.25.353-.25.58,0,.26.103.47.31.63.207.153.493.23.86.23.36,0,.673-.08.94-.24.273-.16.47-.393.59-.7l.19.66c-.127.313-.35.563-.67.75-.32.18-.723.27-1.21.27ZM82.545,296.667c-.253,0-.5-.043-.74-.13-.24-.08-.447-.2-.62-.36l.41-.72c.133.127.28.223.44.29s.33.1.51.1c.233,0,.427-.06.58-.18.153-.12.297-.333.43-.64l.33-.73.1-.12,2.08-4.81h.94l-2.57,5.83c-.153.373-.327.667-.52.88-.187.213-.393.363-.62.45-.227.093-.477.14-.75.14ZM83.805,294.837l-2.42-5.47h1l2.06,4.72-.64.75ZM89.353,294.727c-.44,0-.86-.06-1.26-.18-.393-.12-.703-.267-.93-.44l.4-.76c.227.153.507.283.84.39.333.107.673.16,1.02.16.447,0,.767-.063.96-.19.2-.127.3-.303.3-.53,0-.167-.06-.297-.18-.39s-.28-.163-.48-.21c-.193-.047-.41-.087-.65-.12-.24-.04-.48-.087-.72-.14-.24-.06-.46-.14-.66-.24-.2-.107-.36-.25-.48-.43-.12-.187-.18-.433-.18-.74,0-.32.09-.6.27-.84.18-.24.433-.423.76-.55.333-.133.727-.2,1.18-.2.347,0,.697.043,1.05.13.36.08.653.197.88.35l-.41.76c-.24-.16-.49-.27-.75-.33-.26-.06-.52-.09-.78-.09-.42,0-.733.07-.94.21-.207.133-.31.307-.31.52,0,.18.06.32.18.42.127.093.287.167.48.22.2.053.42.1.66.14.24.033.48.08.72.14.24.053.457.13.65.23.2.1.36.24.48.42.127.18.19.42.19.72,0,.32-.093.597-.28.83-.187.233-.45.417-.79.55-.34.127-.747.19-1.22.19Z"/><path class="ai" d="M111.069,285.16c.022-.495.034-.993.034-1.494,0-17.673-14.126-32-31.552-32s-31.551,14.327-31.551,32,14.126,32,31.551,32c7.171,0,13.783-2.426,19.082-6.514-.708-1.44-1.201-2.919-1.506-4.07-.233-.692-.606-1.969-.807-3.566-4.362,4.216-10.267,6.805-16.769,6.805-13.426,0-24.309-11.038-24.309-24.655s10.884-24.655,24.309-24.655,24.31,11.038,24.31,24.655c0,.588-.02,1.17-.06,1.747.142.066.278.141.408.223.81-1.218,2.173-2.042,3.807-1.965,1.259.059,2.314.636,3.053,1.489ZM98.083,299.625s0,0,0,0c.017.861.108,1.667.23,2.38-.122-.713-.213-1.519-.23-2.38ZM105.879,290.015c-.105-.14-.199-.291-.277-.451-.069-.14-.126-.287-.172-.44-.042-.14-.073-.285-.094-.434.108.788.528,1.471,1.124,1.888-.123-.086-.239-.184-.346-.292-.084-.085-.163-.175-.235-.272ZM106.089,286.308c-.221.229-.405.501-.538.806-.056.127-.102.259-.14.396.127-.466.364-.878.677-1.202Z"/><path class="ab" d="M116.953,291.424c0,1.496-1.117,2.708-2.496,2.708s-2.496-1.212-2.496-2.708,1.118-2.708,2.496-2.708,2.496,1.212,2.496,2.708Z"/><path class="aa" d="M121.807,292.377c0,1.108-.828,2.006-1.849,2.006s-1.849-.898-1.849-2.006.828-2.006,1.849-2.006,1.849.898,1.849,2.006Z"/><path class="z" d="M125.735,295.01c0,1.039-.776,1.881-1.733,1.881s-1.733-.842-1.733-1.881.776-1.881,1.733-1.881,1.733.842,1.733,1.881Z"/><path class="v" d="M128,299.172c0,.955-.714,1.73-1.595,1.73s-1.594-.775-1.594-1.73.714-1.73,1.594-1.73,1.595.775,1.595,1.73Z"/><path class="u" d="M105.344,288.258c-.059,1.494,1.009,2.758,2.387,2.822,1.377.064,2.541-1.095,2.601-2.589.059-1.494-1.009-2.757-2.386-2.822-1.377-.064-2.542,1.095-2.601,2.589Z"/><path class="t" d="M100.458,288.984c-.044,1.107.748,2.043,1.768,2.09,1.02.048,1.883-.811,1.926-1.918s-.748-2.043-1.768-2.09c-1.02-.048-1.883.811-1.926,1.918Z"/><path class="s" d="M96.429,291.432c-.041,1.038.701,1.915,1.657,1.959.956.045,1.765-.761,1.806-1.798.041-1.038-.701-1.915-1.657-1.959-.956-.045-1.765.76-1.806,1.798Z"/><path class="y" d="M94.002,295.485c-.038.955.645,1.762,1.525,1.803s1.624-.7,1.662-1.654c.038-.955-.645-1.762-1.525-1.803-.88-.041-1.624.7-1.662,1.654Z"/><path class="w" d="M107.062,312.211c-4.53,1.906-7.141-4.263-8.042-7.698-.352-1.028-1.109-3.686-.786-6.645.324-2.959,3.813-6.519,7.857-6.344,4.044.176,4.738,4.413,2.103,7.447-2.635,3.034-1.572,4.363-.347,5.717,1.225,1.354,3.744,5.617-.786,7.522Z"/><path class="x" d="M114.381,315.235c4.456,2.099,7.291-3.952,8.317-7.346.389-1.012,1.243-3.635,1.028-6.606-.215-2.97-3.572-6.678-7.62-6.677-4.048.001-4.895,4.206-2.373,7.351,2.522,3.145,1.411,4.427.138,5.727s-3.946,5.451.51,7.55Z"/><path class="ad" d="M145.719,257.42h-1.859c-.053-.305-.151-.575-.293-.81-.143-.239-.32-.441-.532-.607-.212-.166-.454-.29-.726-.373-.269-.086-.559-.129-.87-.129-.554,0-1.044.139-1.472.418-.427.275-.762.68-1.004,1.213-.242.53-.363,1.178-.363,1.944,0,.779.121,1.435.363,1.969.245.53.58.931,1.004,1.203.428.268.917.403,1.467.403.305,0,.59-.04.855-.119.269-.083.509-.204.721-.363.215-.159.396-.355.542-.587.149-.232.252-.497.308-.795l1.859.01c-.069.484-.22.938-.452,1.362-.229.424-.529.799-.9,1.124-.371.321-.805.573-1.302.756-.498.179-1.049.268-1.656.268-.895,0-1.694-.207-2.396-.621-.703-.414-1.256-1.013-1.661-1.795-.404-.782-.606-1.72-.606-2.814s.204-2.035.611-2.814c.408-.782.963-1.38,1.666-1.795.702-.414,1.498-.621,2.386-.621.567,0,1.094.079,1.581.239.487.159.921.393,1.303.701.381.305.694.679.939,1.124.249.441.411.945.487,1.511ZM150.66,264.316c-.746,0-1.392-.164-1.939-.492-.547-.328-.971-.787-1.273-1.377-.298-.59-.447-1.279-.447-2.068s.149-1.48.447-2.073c.302-.593.726-1.054,1.273-1.382.547-.328,1.193-.492,1.939-.492s1.392.164,1.939.492c.547.328.969.789,1.268,1.382.301.593.452,1.284.452,2.073s-.151,1.478-.452,2.068c-.299.59-.721,1.049-1.268,1.377-.547.328-1.193.492-1.939.492ZM150.67,262.874c.404,0,.742-.111,1.014-.333.272-.225.474-.527.607-.905.136-.378.203-.799.203-1.263,0-.467-.067-.89-.203-1.268-.133-.381-.335-.684-.607-.91-.272-.225-.61-.338-1.014-.338-.414,0-.759.113-1.034.338-.272.225-.476.529-.612.91-.132.378-.199.8-.199,1.268,0,.464.067.885.199,1.263.136.378.34.679.612.905.275.222.62.333,1.034.333ZM155.847,264.167v-7.636h1.745v1.273h.079c.139-.441.378-.781.716-1.019.341-.242.731-.363,1.168-.363.1,0,.211.005.333.015.126.007.231.018.314.035v1.655c-.077-.026-.198-.05-.363-.07-.163-.023-.32-.035-.473-.035-.328,0-.623.071-.884.214-.259.139-.463.333-.612.582-.149.248-.224.535-.224.86v4.489h-1.799ZM164.464,264.316c-.766,0-1.427-.159-1.984-.477-.554-.321-.979-.776-1.278-1.362-.298-.59-.447-1.284-.447-2.083,0-.786.149-1.475.447-2.068.302-.597.723-1.061,1.263-1.392.54-.335,1.175-.502,1.904-.502.471,0,.915.076,1.333.229.42.149.792.381,1.113.696.325.315.58.716.766,1.203.185.484.278,1.061.278,1.73v.552h-6.259v-1.213h4.534c-.003-.345-.078-.651-.224-.92-.145-.272-.349-.486-.611-.641-.259-.156-.56-.234-.905-.234-.368,0-.691.089-.969.268-.279.176-.496.408-.652.696-.152.285-.23.598-.233.94v1.059c0,.444.081.825.243,1.143.163.315.39.557.681.726.292.166.633.249,1.024.249.262,0,.499-.037.711-.109.213-.076.396-.187.552-.333.156-.146.274-.326.353-.542l1.681.189c-.106.444-.309.832-.607,1.163-.295.328-.673.583-1.133.766-.461.179-.988.268-1.581.268ZM172.762,264.316c-.765,0-1.426-.159-1.983-.477-.554-.321-.98-.776-1.278-1.362-.298-.59-.447-1.284-.447-2.083,0-.786.149-1.475.447-2.068.302-.597.723-1.061,1.263-1.392.54-.335,1.175-.502,1.904-.502.471,0,.915.076,1.332.229.421.149.792.381,1.114.696.325.315.58.716.766,1.203.185.484.278,1.061.278,1.73v.552h-6.259v-1.213h4.534c-.003-.345-.078-.651-.224-.92-.146-.272-.35-.486-.611-.641-.259-.156-.56-.234-.905-.234-.368,0-.691.089-.97.268-.278.176-.495.408-.651.696-.152.285-.23.598-.234.94v1.059c0,.444.082.825.244,1.143.162.315.389.557.681.726.292.166.633.249,1.024.249.262,0,.499-.037.711-.109.212-.076.396-.187.552-.333.156-.146.274-.326.353-.542l1.68.189c-.106.444-.308.832-.606,1.163-.295.328-.673.583-1.134.766-.46.179-.987.268-1.581.268ZM186.766,256.784c-.046-.434-.242-.772-.586-1.014-.342-.242-.786-.363-1.333-.363-.384,0-.714.058-.989.174-.275.116-.486.273-.632.472-.145.199-.22.426-.223.681,0,.212.048.396.144.552.099.156.234.288.403.398.169.106.356.196.561.268.206.073.413.134.622.184l.954.239c.385.09.754.211,1.109.363.358.153.678.345.96.577.285.232.51.512.676.84.165.328.248.713.248,1.153,0,.597-.152,1.122-.457,1.576-.305.451-.746.804-1.323,1.059-.573.252-1.267.378-2.083.378-.792,0-1.48-.123-2.063-.368-.58-.245-1.034-.603-1.362-1.074-.325-.471-.501-1.044-.527-1.72h1.815c.026.355.135.65.328.885.192.235.442.411.75.527.312.116.66.174,1.044.174.401,0,.753-.06,1.054-.179.305-.123.544-.292.716-.507.173-.219.26-.474.264-.766-.004-.265-.081-.484-.234-.656-.152-.176-.366-.321-.641-.438-.272-.119-.59-.225-.955-.318l-1.158-.298c-.839-.215-1.502-.542-1.989-.979-.484-.441-.726-1.026-.726-1.755,0-.6.163-1.125.488-1.576.328-.451.773-.8,1.337-1.049.563-.252,1.201-.378,1.914-.378.723,0,1.356.126,1.899.378.547.249.976.595,1.288,1.039.311.441.472.948.482,1.521h-1.775ZM194.058,256.53v1.392h-4.39v-1.392h4.39ZM190.752,254.701h1.8v7.169c0,.242.036.428.109.557.076.126.176.212.299.259.122.046.258.07.407.07.113,0,.216-.008.308-.025.097-.017.169-.031.219-.045l.303,1.407c-.096.033-.233.07-.412.109-.176.04-.391.063-.647.07-.45.013-.856-.055-1.218-.204-.361-.153-.648-.388-.86-.706-.208-.318-.311-.716-.308-1.193v-7.467ZM198.862,264.316c-.766,0-1.427-.159-1.984-.477-.553-.321-.979-.776-1.277-1.362-.299-.59-.448-1.284-.448-2.083,0-.786.149-1.475.448-2.068.301-.597.722-1.061,1.262-1.392.541-.335,1.175-.502,1.905-.502.47,0,.914.076,1.332.229.421.149.792.381,1.114.696.324.315.58.716.765,1.203.186.484.279,1.061.279,1.73v.552h-6.26v-1.213h4.534c-.003-.345-.077-.651-.223-.92-.146-.272-.35-.486-.612-.641-.258-.156-.56-.234-.905-.234-.367,0-.691.089-.969.268-.278.176-.496.408-.651.696-.153.285-.231.598-.234.94v1.059c0,.444.081.825.244,1.143.162.315.389.557.681.726.291.166.633.249,1.024.249.262,0,.499-.037.711-.109.212-.076.396-.187.552-.333.155-.146.273-.326.353-.542l1.68.189c-.106.444-.308.832-.606,1.163-.295.328-.673.583-1.134.766-.461.179-.988.268-1.581.268ZM203.78,267.03v-10.5h1.77v1.263h.104c.093-.186.224-.383.393-.592.169-.212.398-.393.686-.542.289-.153.657-.229,1.104-.229.59,0,1.122.151,1.596.452.477.298.855.741,1.133,1.327.282.583.423,1.299.423,2.148,0,.839-.138,1.551-.413,2.138-.275.587-.649,1.034-1.123,1.342-.474.308-1.011.462-1.611.462-.438,0-.8-.073-1.089-.219-.288-.146-.52-.322-.696-.527-.172-.209-.306-.406-.403-.592h-.074v4.067h-1.8ZM205.545,260.348c0,.494.07.926.209,1.298.142.371.346.661.611.87.269.205.594.308.975.308.398,0,.731-.106.999-.318.269-.215.471-.509.607-.88.139-.375.208-.8.208-1.278,0-.474-.067-.895-.203-1.263-.136-.368-.338-.656-.607-.865-.268-.209-.603-.313-1.004-.313-.385,0-.711.101-.98.303-.268.202-.472.486-.611.85-.136.365-.204.794-.204,1.288ZM224.798,257.42h-1.86c-.053-.305-.151-.575-.293-.81-.143-.239-.32-.441-.532-.607-.212-.166-.454-.29-.726-.373-.268-.086-.558-.129-.87-.129-.553,0-1.044.139-1.472.418-.427.275-.762.68-1.004,1.213-.242.53-.363,1.178-.363,1.944,0,.779.121,1.435.363,1.969.245.53.58.931,1.004,1.203.428.268.917.403,1.467.403.305,0,.59-.04.855-.119.269-.083.509-.204.721-.363.216-.159.396-.355.542-.587.149-.232.252-.497.308-.795l1.86.01c-.07.484-.221.938-.453,1.362-.229.424-.528.799-.9,1.124-.371.321-.805.573-1.302.756-.497.179-1.049.268-1.656.268-.895,0-1.693-.207-2.396-.621-.703-.414-1.256-1.013-1.661-1.795-.404-.782-.606-1.72-.606-2.814s.204-2.035.611-2.814c.408-.782.963-1.38,1.666-1.795.703-.414,1.498-.621,2.386-.621.567,0,1.094.079,1.581.239.487.159.922.393,1.303.701.381.305.694.679.939,1.124.249.441.411.945.488,1.511ZM228.207,259.692v4.474h-1.8v-10.182h1.76v3.843h.09c.179-.431.455-.771.83-1.019.378-.252.858-.378,1.442-.378.53,0,.992.111,1.387.333.394.222.699.547.914.974.219.428.329.95.329,1.566v4.862h-1.8v-4.584c0-.514-.133-.913-.398-1.198-.262-.288-.63-.433-1.104-.433-.318,0-.603.07-.855.209-.248.136-.444.333-.586.592-.14.259-.209.572-.209.94ZM237.191,264.321c-.484,0-.92-.086-1.308-.259-.384-.176-.689-.434-.915-.776-.222-.341-.333-.762-.333-1.263,0-.431.08-.787.239-1.069.159-.282.376-.507.651-.676.275-.169.585-.297.93-.383.348-.09.707-.154,1.079-.194.447-.046.81-.088,1.088-.124.279-.04.481-.099.607-.179.129-.083.194-.21.194-.383v-.03c0-.374-.111-.664-.333-.87s-.542-.308-.96-.308c-.441,0-.79.096-1.049.288-.255.192-.427.419-.517.681l-1.68-.239c.132-.464.351-.852.656-1.163.305-.315.678-.55,1.119-.706.44-.159.928-.239,1.461-.239.368,0,.734.043,1.099.129.365.086.698.229.999.427.302.196.544.462.726.8.186.338.278.761.278,1.268v5.111h-1.73v-1.049h-.059c-.11.212-.264.411-.463.597-.195.182-.442.33-.74.443-.295.109-.642.164-1.039.164ZM237.658,262.998c.361,0,.674-.071.939-.214.266-.146.469-.338.612-.577.146-.239.219-.499.219-.781v-.9c-.057.046-.153.09-.289.129-.132.04-.281.074-.447.104-.166.03-.33.056-.492.08-.163.023-.304.043-.423.06-.268.036-.509.096-.721.179-.212.083-.379.199-.502.348-.122.146-.184.335-.184.567,0,.331.121.582.363.751.242.169.55.254.925.254ZM244.832,253.985v10.182h-1.8v-10.182h1.8ZM248.482,253.985v10.182h-1.799v-10.182h1.799ZM253.714,264.316c-.766,0-1.427-.159-1.984-.477-.554-.321-.979-.776-1.278-1.362-.298-.59-.447-1.284-.447-2.083,0-.786.149-1.475.447-2.068.302-.597.723-1.061,1.263-1.392.54-.335,1.175-.502,1.904-.502.471,0,.915.076,1.333.229.42.149.792.381,1.113.696.325.315.58.716.766,1.203.185.484.278,1.061.278,1.73v.552h-6.259v-1.213h4.534c-.003-.345-.078-.651-.224-.92-.145-.272-.349-.486-.611-.641-.259-.156-.56-.234-.905-.234-.368,0-.691.089-.969.268-.279.176-.496.408-.652.696-.152.285-.23.598-.233.94v1.059c0,.444.081.825.243,1.143.163.315.39.557.681.726.292.166.633.249,1.024.249.262,0,.499-.037.711-.109.213-.076.396-.187.552-.333.156-.146.274-.326.353-.542l1.681.189c-.106.444-.309.832-.607,1.163-.295.328-.673.583-1.133.766-.461.179-.988.268-1.581.268ZM260.431,259.692v4.474h-1.799v-7.636h1.72v1.298h.089c.176-.427.456-.767.841-1.019.387-.252.866-.378,1.436-.378.527,0,.986.113,1.378.338.394.225.699.552.914.979.219.427.327.946.323,1.556v4.862h-1.799v-4.584c0-.51-.133-.91-.398-1.198-.262-.288-.625-.433-1.089-.433-.315,0-.595.07-.84.209-.242.136-.432.333-.572.592-.136.259-.204.572-.204.94ZM270.484,267.189c-.646,0-1.201-.088-1.665-.264-.464-.172-.837-.404-1.119-.696s-.477-.615-.587-.969l1.621-.393c.073.149.179.297.318.442.139.149.327.272.562.368.239.099.539.149.9.149.51,0,.933-.124,1.268-.373.334-.245.502-.65.502-1.213v-1.447h-.09c-.093.186-.228.376-.407.572-.176.195-.41.36-.701.492-.289.133-.652.199-1.089.199-.587,0-1.119-.138-1.596-.413-.474-.278-.852-.693-1.134-1.243-.278-.553-.417-1.246-.417-2.078,0-.839.139-1.546.417-2.123.282-.58.662-1.019,1.139-1.317.477-.302,1.009-.452,1.596-.452.447,0,.815.076,1.103.229.292.149.524.33.696.542.173.209.304.406.393.592h.1v-1.263h1.775v7.761c0,.653-.156,1.193-.468,1.621-.311.428-.737.747-1.277.959-.541.212-1.154.318-1.84.318ZM270.499,262.645c.381,0,.706-.093.974-.278.269-.186.473-.452.612-.8.139-.348.209-.766.209-1.253,0-.481-.07-.901-.209-1.263-.136-.361-.338-.641-.607-.84-.265-.202-.591-.303-.979-.303-.401,0-.736.104-1.004.313-.269.209-.471.495-.607.86-.136.361-.204.772-.204,1.233,0,.467.068.877.204,1.228.139.348.343.62.612.815.271.192.605.288.999.288ZM279.294,264.316c-.766,0-1.427-.159-1.984-.477-.553-.321-.979-.776-1.278-1.362-.298-.59-.447-1.284-.447-2.083,0-.786.149-1.475.447-2.068.302-.597.723-1.061,1.263-1.392.54-.335,1.175-.502,1.904-.502.471,0,.915.076,1.333.229.421.149.792.381,1.113.696.325.315.58.716.766,1.203.185.484.278,1.061.278,1.73v.552h-6.259v-1.213h4.534c-.003-.345-.078-.651-.224-.92-.145-.272-.349-.486-.611-.641-.259-.156-.56-.234-.905-.234-.368,0-.691.089-.969.268-.279.176-.496.408-.652.696-.152.285-.23.598-.233.94v1.059c0,.444.081.825.243,1.143.163.315.39.557.681.726.292.166.633.249,1.025.249.261,0,.498-.037.71-.109.213-.076.397-.187.552-.333.156-.146.274-.326.353-.542l1.681.189c-.106.444-.309.832-.607,1.163-.295.328-.673.583-1.133.766-.461.179-.988.268-1.581.268Z"/><path class="ac" d="M136.839,283.167v-.954l2.954-3.06c.315-.332.575-.624.779-.874.208-.253.363-.493.465-.72.102-.227.153-.469.153-.724,0-.29-.068-.54-.204-.75-.137-.213-.323-.376-.558-.49-.236-.117-.502-.175-.797-.175-.313,0-.586.064-.819.192-.232.128-.411.308-.536.541-.125.233-.188.506-.188.818h-1.257c0-.531.122-.996.366-1.394.245-.398.58-.706,1.006-.925.426-.222.911-.332,1.453-.332.549,0,1.032.109,1.449.328.421.216.749.511.984.886.236.372.354.793.354,1.261,0,.324-.061.641-.183.95-.119.31-.328.655-.626,1.036-.299.378-.714.837-1.245,1.376l-1.734,1.815v.064h3.929v1.129h-5.745ZM147.237,283.312c-.673-.003-1.248-.18-1.726-.533-.477-.352-.842-.865-1.095-1.538-.253-.673-.379-1.484-.379-2.433s.126-1.754.379-2.425c.256-.67.622-1.182,1.1-1.534.48-.352,1.054-.528,1.721-.528s1.24.178,1.718.533c.477.352.842.864,1.095,1.534.255.668.383,1.474.383,2.42,0,.952-.126,1.764-.379,2.438-.253.671-.618,1.183-1.095,1.538-.477.352-1.051.528-1.722.528ZM147.237,282.174c.591,0,1.053-.288,1.385-.865.335-.577.503-1.41.503-2.501,0-.724-.077-1.337-.23-1.837-.151-.503-.368-.883-.652-1.142-.281-.261-.617-.392-1.006-.392-.588,0-1.049.29-1.385.869-.335.58-.504,1.413-.507,2.501,0,.727.075,1.342.226,1.845.153.5.371.879.652,1.138.281.256.619.383,1.014.383ZM158.632,274.439h1.313v6.188c0,.56-.111,1.038-.333,1.436-.219.398-.527.702-.924.912-.398.207-.864.311-1.398.311-.492,0-.933-.09-1.326-.268-.389-.179-.697-.439-.924-.78-.225-.344-.337-.761-.337-1.253h1.308c0,.242.056.45.167.626.113.176.268.314.464.413.199.096.426.145.682.145.278,0,.514-.058.707-.175.196-.119.345-.294.448-.524.102-.23.153-.511.153-.844v-6.188ZM163.664,283.312c-.415,0-.79-.077-1.125-.23-.336-.156-.601-.382-.797-.678-.193-.295-.29-.658-.29-1.087,0-.369.071-.673.213-.912.142-.239.334-.428.575-.567.242-.139.512-.244.81-.315.298-.071.602-.125.912-.162.392-.045.71-.082.955-.111.244-.031.421-.081.532-.149.111-.068.166-.179.166-.332v-.03c0-.372-.105-.66-.315-.865-.207-.205-.517-.307-.929-.307-.429,0-.767.095-1.014.285-.244.188-.413.396-.507.626l-1.198-.273c.142-.398.35-.719.623-.963.275-.247.592-.426.95-.537.358-.114.734-.17,1.129-.17.261,0,.538.031.831.094.295.06.571.17.827.332.258.162.47.393.635.695.164.298.247.686.247,1.163v4.347h-1.244v-.895h-.052c-.082.165-.206.327-.37.486-.165.159-.377.291-.635.396-.259.105-.568.158-.929.158ZM163.941,282.289c.352,0,.653-.07.903-.209.253-.139.445-.321.575-.545.134-.227.201-.47.201-.729v-.844c-.046.045-.134.088-.265.128-.127.037-.274.07-.438.098-.165.026-.326.05-.482.072-.156.02-.287.037-.392.051-.247.031-.473.084-.678.158-.201.074-.363.18-.485.32-.12.136-.179.318-.179.545,0,.315.116.554.349.716.233.159.53.239.891.239ZM169.865,279.28v3.886h-1.274v-6.546h1.223v1.065h.081c.15-.347.386-.625.707-.835.324-.21.732-.315,1.223-.315.446,0,.837.094,1.172.281.335.185.595.46.78.827.185.366.277.82.277,1.359v4.163h-1.274v-4.01c0-.475-.124-.845-.371-1.112-.247-.27-.587-.405-1.018-.405-.296,0-.559.064-.789.192-.227.128-.407.315-.541.562-.131.244-.196.54-.196.886ZM179.909,280.452v-3.831h1.279v6.546h-1.253v-1.133h-.069c-.15.349-.392.641-.724.874-.329.23-.74.345-1.231.345-.421,0-.793-.092-1.117-.277-.321-.188-.574-.464-.758-.831-.182-.366-.273-.82-.273-1.359v-4.163h1.274v4.01c0,.446.124.801.371,1.065.247.264.568.396.963.396.238,0,.476-.06.711-.179.239-.119.436-.3.593-.541.159-.242.237-.548.234-.921ZM184.804,283.312c-.414,0-.789-.077-1.125-.23-.335-.156-.601-.382-.797-.678-.193-.295-.289-.658-.289-1.087,0-.369.071-.673.213-.912.142-.239.334-.428.575-.567.242-.139.511-.244.81-.315.298-.071.602-.125.912-.162.392-.045.71-.082.954-.111.244-.031.422-.081.533-.149.111-.068.166-.179.166-.332v-.03c0-.372-.105-.66-.315-.865-.208-.205-.517-.307-.929-.307-.429,0-.767.095-1.014.285-.245.188-.414.396-.508.626l-1.197-.273c.142-.398.349-.719.622-.963.276-.247.592-.426.95-.537.358-.114.735-.17,1.13-.17.261,0,.538.031.831.094.295.06.571.17.826.332.259.162.471.393.635.695.165.298.247.686.247,1.163v4.347h-1.244v-.895h-.051c-.082.165-.206.327-.371.486-.165.159-.376.291-.635.396-.258.105-.568.158-.929.158ZM185.081,282.289c.353,0,.654-.07.904-.209.253-.139.444-.321.575-.545.134-.227.2-.47.2-.729v-.844c-.045.045-.133.088-.264.128-.128.037-.274.07-.439.098-.165.026-.325.05-.481.072-.157.02-.287.037-.392.051-.248.031-.473.084-.678.158-.202.074-.364.18-.486.32-.119.136-.179.318-.179.545,0,.315.117.554.35.716.233.159.53.239.89.239ZM189.732,283.167v-6.546h1.231v1.04h.068c.12-.352.33-.629.631-.831.304-.205.648-.307,1.031-.307.08,0,.173.003.281.009.111.006.198.013.26.021v1.219c-.051-.014-.142-.03-.272-.047-.131-.02-.262-.03-.392-.03-.302,0-.57.064-.806.192-.233.125-.417.3-.554.524-.136.222-.204.474-.204.758v3.997h-1.274ZM195.342,285.621c-.191,0-.364-.016-.52-.047-.157-.028-.273-.06-.35-.094l.307-1.044c.233.062.44.09.622.081.182-.009.343-.077.482-.205.142-.128.267-.337.375-.626l.157-.435-2.394-6.631h1.363l1.658,5.08h.068l1.658-5.08h1.368l-2.698,7.419c-.125.341-.284.629-.477.865-.193.239-.423.418-.69.537s-.577.179-.929.179ZM204.492,283.167v-.954l2.953-3.06c.315-.332.575-.624.78-.874.207-.253.362-.493.464-.72.103-.227.154-.469.154-.724,0-.29-.068-.54-.205-.75-.136-.213-.322-.376-.558-.49-.236-.117-.502-.175-.797-.175-.312,0-.585.064-.818.192s-.412.308-.537.541c-.125.233-.188.506-.188.818h-1.257c0-.531.122-.996.367-1.394.244-.398.579-.706,1.005-.925.427-.222.911-.332,1.454-.332.548,0,1.031.109,1.448.328.421.216.749.511.985.886.236.372.354.793.354,1.261,0,.324-.062.641-.184.95-.119.31-.328.655-.626,1.036-.298.378-.713.837-1.244,1.376l-1.735,1.815v.064h3.929v1.129h-5.744ZM214.89,283.312c-.674-.003-1.249-.18-1.726-.533-.478-.352-.843-.865-1.095-1.538-.253-.673-.38-1.484-.38-2.433s.127-1.754.38-2.425c.255-.67.622-1.182,1.099-1.534.48-.352,1.054-.528,1.722-.528s1.24.178,1.717.533c.477.352.842.864,1.095,1.534.256.668.384,1.474.384,2.42,0,.952-.127,1.764-.38,2.438-.253.671-.618,1.183-1.095,1.538-.477.352-1.051.528-1.721.528ZM214.89,282.174c.59,0,1.052-.288,1.385-.865.335-.577.502-1.41.502-2.501,0-.724-.076-1.337-.23-1.837-.15-.503-.368-.883-.652-1.142-.281-.261-.616-.392-1.005-.392-.589,0-1.05.29-1.385.869-.336.58-.505,1.413-.507,2.501,0,.727.075,1.342.225,1.845.154.5.371.879.652,1.138.282.256.62.383,1.015.383ZM219.597,283.167v-.954l2.953-3.06c.316-.332.576-.624.78-.874.208-.253.362-.493.465-.72.102-.227.153-.469.153-.724,0-.29-.068-.54-.204-.75-.137-.213-.323-.376-.559-.49-.235-.117-.501-.175-.797-.175-.312,0-.585.064-.818.192-.233.128-.412.308-.537.541-.125.233-.187.506-.187.818h-1.257c0-.531.122-.996.366-1.394.245-.398.58-.706,1.006-.925.426-.222.91-.332,1.453-.332.548,0,1.031.109,1.449.328.42.216.749.511.984.886.236.372.354.793.354,1.261,0,.324-.061.641-.183.95-.12.31-.328.655-.627,1.036-.298.378-.713.837-1.244,1.376l-1.734,1.815v.064h3.929v1.129h-5.745ZM229.837,283.286c-.534,0-1.014-.102-1.44-.307-.423-.207-.761-.492-1.014-.852-.253-.361-.388-.773-.405-1.236h1.278c.032.375.198.683.499.925.301.241.662.362,1.082.362.336,0,.632-.077.891-.23.261-.156.466-.371.614-.643.15-.273.225-.584.225-.933,0-.355-.076-.672-.23-.95-.153-.278-.365-.497-.635-.656-.267-.159-.573-.24-.92-.243-.264,0-.53.046-.797.136s-.483.21-.648.358l-1.206-.179.49-4.398h4.799v1.129h-3.703l-.277,2.442h.051c.17-.165.396-.303.677-.413.284-.111.588-.166.912-.166.532,0,1.005.126,1.419.379.418.253.746.598.985,1.035.241.435.36.935.358,1.5.002.565-.125,1.07-.384,1.513-.256.443-.611.793-1.065,1.048-.452.253-.97.379-1.556.379Z"/><path class="af" d="M147.5,294.167h89c6.351,0,11.5,5.149,11.5,11.5h0c0,6.351-5.149,11.5-11.5,11.5h-89c-6.351,0-11.5-5.149-11.5-11.5h0c0-6.351,5.149-11.5,11.5-11.5Z" shape-rendering="crispEdges"/><path class="r" d="M147.5,294.667h89c6.075,0,11,4.925,11,11h0c0,6.075-4.925,11-11,11h-89c-6.075,0-11-4.925-11-11h0c0-6.075,4.925-11,11-11Z" shape-rendering="crispEdges"/><path class="ad" d="M144.861,310.167v-8.727h3.273c.67,0,1.232.117,1.687.35.457.233.803.56,1.036.98.235.418.353.905.353,1.462,0,.56-.119,1.045-.358,1.457-.236.409-.584.726-1.044.95-.46.222-1.025.332-1.696.332h-2.331v-1.312h2.118c.392,0,.713-.054.963-.162.25-.111.435-.271.554-.481.122-.213.183-.474.183-.784s-.061-.574-.183-.793c-.122-.222-.308-.389-.558-.503-.25-.117-.572-.175-.967-.175h-1.449v7.406h-1.581ZM149.369,306.212l2.161,3.954h-1.764l-2.123-3.954h1.726ZM154.481,310.299c-.415,0-.789-.074-1.121-.222-.329-.151-.591-.372-.784-.665-.19-.293-.286-.653-.286-1.082,0-.369.069-.675.205-.916.136-.242.322-.435.558-.58.236-.145.502-.254.797-.328.298-.077.607-.132.925-.166.383-.04.694-.075.933-.106.239-.034.412-.085.52-.153.111-.071.166-.18.166-.328v-.025c0-.321-.095-.57-.285-.746-.191-.176-.465-.264-.823-.264-.378,0-.677.082-.899.247-.219.165-.366.359-.443.584l-1.44-.205c.113-.398.301-.73.562-.997.261-.27.581-.472.959-.605.378-.136.795-.205,1.253-.205.315,0,.629.037.941.111.313.074.598.196.857.367.259.168.466.396.622.686.159.29.239.652.239,1.087v4.381h-1.483v-.899h-.051c-.094.182-.226.352-.397.511-.167.156-.379.283-.635.379-.252.094-.549.141-.89.141ZM154.881,309.165c.31,0,.579-.061.806-.183.227-.125.402-.29.524-.494.125-.204.187-.427.187-.669v-.771c-.048.04-.13.077-.247.111-.113.034-.241.064-.383.09-.142.025-.283.048-.422.068-.139.02-.26.037-.362.051-.23.031-.436.082-.618.153-.182.071-.326.17-.431.298-.105.125-.157.287-.157.486,0,.284.103.499.311.643.207.145.471.217.792.217ZM161.031,306.331v3.835h-1.543v-6.546h1.474v1.112h.077c.151-.367.391-.658.72-.874.333-.216.743-.324,1.232-.324.451,0,.845.097,1.18.29.338.193.6.473.784.839.188.367.28.811.277,1.334v4.168h-1.542v-3.929c0-.438-.114-.78-.341-1.027-.225-.247-.536-.371-.934-.371-.269,0-.509.06-.72.179-.207.116-.37.285-.49.507-.116.222-.174.49-.174.805ZM168.207,308.113l-.005-1.862h.248l2.352-2.629h1.802l-2.893,3.222h-.32l-1.184,1.27ZM166.8,310.167v-8.727h1.543v8.727h-1.543ZM170.908,310.167l-2.13-2.979,1.039-1.087,2.937,4.065h-1.846ZM174.583,310.26c-.259,0-.48-.091-.665-.273s-.276-.403-.273-.665c-.003-.256.088-.474.273-.656s.406-.273.665-.273c.25,0,.467.091.652.273.187.182.282.401.285.656-.003.173-.048.331-.136.473-.085.142-.199.256-.341.341-.139.082-.293.124-.46.124ZM174.583,305.59c-.259,0-.48-.091-.665-.273-.185-.185-.276-.406-.273-.665-.003-.256.088-.474.273-.656.185-.185.406-.277.665-.277.25,0,.467.092.652.277.187.182.282.401.285.656-.003.17-.048.327-.136.469-.085.142-.199.256-.341.341-.139.085-.293.128-.46.128ZM183.298,310.333c-.701,0-1.304-.178-1.807-.533-.5-.358-.884-.874-1.154-1.547-.267-.676-.401-1.49-.401-2.442.003-.952.138-1.761.405-2.429.27-.67.655-1.182,1.155-1.534.503-.352,1.103-.528,1.802-.528s1.3.176,1.803.528c.503.352.888.864,1.155,1.534.27.671.405,1.48.405,2.429,0,.955-.135,1.77-.405,2.446-.267.673-.652,1.188-1.155,1.543-.5.355-1.101.533-1.803.533ZM183.298,308.999c.546,0,.976-.268,1.291-.805.319-.54.478-1.334.478-2.382,0-.693-.073-1.276-.218-1.747-.144-.472-.349-.827-.613-1.065-.264-.242-.577-.362-.938-.362-.542,0-.971.27-1.287.81-.315.537-.474,1.325-.477,2.365-.003.696.067,1.281.209,1.756.145.474.349.832.614,1.074.264.239.578.358.941.358ZM188.076,310.167v-1.142l3.03-2.97c.29-.293.531-.553.725-.78.193-.227.338-.448.434-.661.097-.213.145-.44.145-.682,0-.276-.062-.511-.187-.707-.125-.199-.297-.352-.516-.46-.219-.108-.467-.162-.746-.162-.287,0-.538.06-.754.179-.216.116-.383.283-.503.499-.116.216-.175.473-.175.771h-1.504c0-.554.127-1.035.379-1.445.253-.409.601-.726,1.045-.95.446-.224.957-.337,1.534-.337.585,0,1.099.109,1.542.328.443.219.787.519,1.031.899.248.381.371.815.371,1.304,0,.327-.062.648-.187.963-.125.315-.345.665-.661,1.048-.312.383-.751.848-1.317,1.394l-1.504,1.53v.06h3.801v1.321h-5.983ZM199.109,301.03l-2.812,10.449h-1.351l2.812-10.449h1.351ZM200.076,310.167v-1.142l3.03-2.97c.29-.293.531-.553.725-.78.193-.227.338-.448.434-.661.097-.213.145-.44.145-.682,0-.276-.062-.511-.187-.707-.125-.199-.297-.352-.516-.46-.219-.108-.467-.162-.746-.162-.287,0-.538.06-.754.179-.216.116-.383.283-.503.499-.116.216-.175.473-.175.771h-1.504c0-.554.127-1.035.379-1.445.253-.409.601-.726,1.045-.95.446-.224.957-.337,1.534-.337.585,0,1.099.109,1.542.328.443.219.787.519,1.031.899.248.381.371.815.371,1.304,0,.327-.062.648-.187.963-.125.315-.345.665-.661,1.048-.312.383-.751.848-1.317,1.394l-1.504,1.53v.06h3.801v1.321h-5.983ZM210.564,310.286c-.569,0-1.077-.106-1.526-.32-.449-.216-.805-.511-1.07-.886-.261-.375-.4-.804-.417-1.287h1.534c.028.358.183.651.464.878.282.224.62.337,1.015.337.309,0,.585-.071.826-.213.242-.142.432-.339.571-.592.139-.253.208-.541.205-.865.003-.33-.067-.622-.209-.878s-.337-.456-.584-.601c-.247-.148-.531-.222-.852-.222-.261-.003-.519.045-.771.145-.253.099-.453.23-.601.392l-1.428-.234.456-4.5h5.063v1.321h-3.755l-.251,2.314h.051c.162-.19.391-.348.686-.473.296-.128.62-.192.972-.192.528,0,1,.125,1.415.375.414.247.741.588.98,1.023.238.435.358.932.358,1.492,0,.577-.134,1.091-.401,1.543-.264.449-.632.803-1.104,1.061-.468.256-1.011.383-1.627.383ZM216.658,308.973l-.055.469c-.04.358-.111.722-.213,1.091-.1.372-.205.715-.315,1.027-.111.312-.201.558-.269.737h-1.04c.04-.173.094-.409.162-.707.071-.298.139-.633.205-1.006.065-.372.109-.75.132-1.133l.03-.477h1.363ZM221.208,310.286c-.613,0-1.159-.105-1.636-.315-.474-.21-.849-.503-1.125-.878-.275-.375-.422-.808-.439-1.3h1.602c.015.236.093.442.235.618.142.173.331.308.567.405.235.097.5.145.792.145.313,0,.59-.054.831-.162.242-.111.431-.264.567-.46s.203-.422.2-.678c.003-.264-.065-.497-.204-.699-.14-.202-.341-.359-.605-.473-.262-.114-.577-.17-.946-.17h-.772v-1.219h.772c.303,0,.569-.052.796-.158.231-.105.411-.253.542-.443.13-.193.194-.416.191-.669.003-.247-.052-.462-.166-.644-.111-.185-.268-.328-.473-.43-.202-.102-.439-.153-.712-.153-.267,0-.514.048-.741.145-.227.097-.41.234-.55.413-.139.176-.213.386-.221.631h-1.522c.012-.489.152-.918.422-1.287.273-.372.637-.662,1.091-.869.455-.21.965-.315,1.53-.315.582,0,1.088.109,1.517.328.432.216.766.507,1.001.874.236.367.354.771.354,1.215.003.491-.142.903-.434,1.236-.29.332-.671.55-1.143.652v.068c.614.085,1.084.312,1.411.682.33.367.493.822.49,1.368,0,.489-.139.926-.418,1.312-.275.383-.656.685-1.142.903-.483.219-1.037.328-1.662.328ZM226.212,310.167l3.712-7.347v-.06h-4.308v-1.321h5.944v1.351l-3.707,7.376h-1.641ZM235.862,310.286c-.633,0-1.196-.106-1.687-.32-.489-.213-.872-.504-1.151-.874-.275-.372-.412-.794-.409-1.266-.003-.367.077-.703.239-1.01.162-.307.38-.562.656-.767.278-.207.588-.34.929-.396v-.06c-.449-.099-.813-.328-1.091-.686-.276-.361-.412-.777-.409-1.249-.003-.449.122-.849.375-1.202.253-.352.599-.629,1.04-.831.44-.204.943-.307,1.508-.307.56,0,1.058.102,1.496.307.44.202.787.479,1.04.831.255.352.383.753.383,1.202,0,.472-.14.888-.422,1.249-.278.358-.637.587-1.078.686v.06c.341.057.648.189.921.396.275.205.494.46.656.767.165.307.247.643.247,1.01,0,.472-.139.894-.417,1.266-.279.369-.662.66-1.151.874-.486.213-1.044.32-1.675.32ZM235.862,309.067c.327,0,.611-.055.852-.166.242-.114.429-.273.563-.477.134-.205.202-.44.205-.707-.003-.278-.076-.524-.218-.737-.139-.216-.331-.385-.575-.507-.242-.122-.517-.183-.827-.183-.312,0-.591.061-.835.183-.244.122-.438.291-.58.507-.139.213-.207.459-.204.737-.003.267.062.503.196.707.133.202.321.359.562.473.245.114.532.17.861.17ZM235.862,305.091c.267,0,.503-.054.708-.162.207-.108.37-.258.49-.452.119-.193.18-.416.183-.669-.003-.25-.063-.469-.179-.656-.117-.19-.278-.337-.486-.439-.207-.105-.446-.158-.716-.158-.275,0-.518.053-.728.158-.208.102-.37.249-.486.439-.114.188-.169.406-.166.656-.003.253.054.476.17.669.119.19.283.341.49.452.21.108.45.162.72.162Z"/><rect class="q" x="280" y="287.667" width="32" height="32"/></g></svg>