<svg width="66" height="64" viewBox="0 0 66 64" fill="none" xmlns="http://www.w3.org/2000/svg">
<path d="M20.8436 34V31.9L26.2436 26.8C26.6703 26.4133 26.9836 26.0667 27.1836 25.76C27.3836 25.4533 27.5169 25.1733 27.5836 24.92C27.6636 24.6667 27.7036 24.4333 27.7036 24.22C27.7036 23.66 27.5103 23.2333 27.1236 22.94C26.7503 22.6333 26.1969 22.48 25.4636 22.48C24.8769 22.48 24.3303 22.5933 23.8236 22.82C23.3303 23.0467 22.9103 23.4 22.5636 23.88L20.2036 22.36C20.7369 21.56 21.4836 20.9267 22.4436 20.46C23.4036 19.9933 24.5103 19.76 25.7636 19.76C26.8036 19.76 27.7103 19.9333 28.4836 20.28C29.2703 20.6133 29.8769 21.0867 30.3036 21.7C30.7436 22.3133 30.9636 23.0467 30.9636 23.9C30.9636 24.3533 30.9036 24.8067 30.7836 25.26C30.6769 25.7 30.4503 26.1667 30.1036 26.66C29.7703 27.1533 29.2769 27.7067 28.6236 28.32L24.1436 32.54L23.5236 31.36H31.4236V34H20.8436ZM37.3005 34.24C36.3271 34.24 35.3605 34.1133 34.4005 33.86C33.4405 33.5933 32.6271 33.22 31.9605 32.74L33.2205 30.26C33.7538 30.6467 34.3738 30.9533 35.0805 31.18C35.7871 31.4067 36.5005 31.52 37.2205 31.52C38.0338 31.52 38.6738 31.36 39.1405 31.04C39.6071 30.72 39.8405 30.28 39.8405 29.72C39.8405 29.1867 39.6338 28.7667 39.2205 28.46C38.8071 28.1533 38.1405 28 37.2205 28H35.7405V25.86L39.6405 21.44L40.0005 22.6H32.6605V20H42.4605V22.1L38.5805 26.52L36.9405 25.58H37.8805C39.6005 25.58 40.9005 25.9667 41.7805 26.74C42.6605 27.5133 43.1005 28.5067 43.1005 29.72C43.1005 30.5067 42.8938 31.2467 42.4805 31.94C42.0671 32.62 41.4338 33.1733 40.5805 33.6C39.7271 34.0267 38.6338 34.24 37.3005 34.24ZM20.716 43V36H23.666C24.4127 36 25.0693 36.1467 25.636 36.44C26.2093 36.7333 26.6527 37.1433 26.966 37.67C27.286 38.1967 27.446 38.8067 27.446 39.5C27.446 40.1933 27.286 40.8033 26.966 41.33C26.6527 41.8567 26.2093 42.2667 25.636 42.56C25.0693 42.8533 24.4127 43 23.666 43H20.716ZM21.716 42.13H23.606C24.186 42.13 24.686 42.02 25.106 41.8C25.5327 41.58 25.8627 41.2733 26.096 40.88C26.3293 40.48 26.446 40.02 26.446 39.5C26.446 38.9733 26.3293 38.5133 26.096 38.12C25.8627 37.7267 25.5327 37.42 25.106 37.2C24.686 36.98 24.186 36.87 23.606 36.87H21.716V42.13ZM32.1277 43V41.88L32.0777 41.67V39.76C32.0777 39.3533 31.9577 39.04 31.7177 38.82C31.4844 38.5933 31.1311 38.48 30.6577 38.48C30.3444 38.48 30.0377 38.5333 29.7377 38.64C29.4377 38.74 29.1844 38.8767 28.9777 39.05L28.5777 38.33C28.8511 38.11 29.1777 37.9433 29.5577 37.83C29.9444 37.71 30.3477 37.65 30.7677 37.65C31.4944 37.65 32.0544 37.8267 32.4477 38.18C32.8411 38.5333 33.0377 39.0733 33.0377 39.8V43H32.1277ZM30.3877 43.06C29.9944 43.06 29.6477 42.9933 29.3477 42.86C29.0544 42.7267 28.8277 42.5433 28.6677 42.31C28.5077 42.07 28.4277 41.8 28.4277 41.5C28.4277 41.2133 28.4944 40.9533 28.6277 40.72C28.7677 40.4867 28.9911 40.3 29.2977 40.16C29.6111 40.02 30.0311 39.95 30.5577 39.95H32.2377V40.64H30.5977C30.1177 40.64 29.7944 40.72 29.6277 40.88C29.4611 41.04 29.3777 41.2333 29.3777 41.46C29.3777 41.72 29.4811 41.93 29.6877 42.09C29.8944 42.2433 30.1811 42.32 30.5477 42.32C30.9077 42.32 31.2211 42.24 31.4877 42.08C31.7611 41.92 31.9577 41.6867 32.0777 41.38L32.2677 42.04C32.1411 42.3533 31.9177 42.6033 31.5977 42.79C31.2777 42.97 30.8744 43.06 30.3877 43.06ZM34.9466 45C34.6933 45 34.4466 44.9567 34.2066 44.87C33.9666 44.79 33.76 44.67 33.5866 44.51L33.9966 43.79C34.13 43.9167 34.2766 44.0133 34.4366 44.08C34.5966 44.1467 34.7666 44.18 34.9466 44.18C35.18 44.18 35.3733 44.12 35.5266 44C35.68 43.88 35.8233 43.6667 35.9566 43.36L36.2866 42.63L36.3866 42.51L38.4666 37.7H39.4066L36.8366 43.53C36.6833 43.9033 36.51 44.1967 36.3166 44.41C36.13 44.6233 35.9233 44.7733 35.6966 44.86C35.47 44.9533 35.22 45 34.9466 45ZM36.2066 43.17L33.7866 37.7H34.7866L36.8466 42.42L36.2066 43.17ZM41.7542 43.06C41.3142 43.06 40.8942 43 40.4942 42.88C40.1009 42.76 39.7909 42.6133 39.5642 42.44L39.9642 41.68C40.1909 41.8333 40.4709 41.9633 40.8042 42.07C41.1376 42.1767 41.4776 42.23 41.8242 42.23C42.2709 42.23 42.5909 42.1667 42.7842 42.04C42.9842 41.9133 43.0842 41.7367 43.0842 41.51C43.0842 41.3433 43.0242 41.2133 42.9042 41.12C42.7842 41.0267 42.6242 40.9567 42.4242 40.91C42.2309 40.8633 42.0142 40.8233 41.7742 40.79C41.5342 40.75 41.2942 40.7033 41.0542 40.65C40.8142 40.59 40.5942 40.51 40.3942 40.41C40.1942 40.3033 40.0342 40.16 39.9142 39.98C39.7942 39.7933 39.7342 39.5467 39.7342 39.24C39.7342 38.92 39.8242 38.64 40.0042 38.4C40.1842 38.16 40.4376 37.9767 40.7642 37.85C41.0976 37.7167 41.4909 37.65 41.9442 37.65C42.2909 37.65 42.6409 37.6933 42.9942 37.78C43.3542 37.86 43.6476 37.9767 43.8742 38.13L43.4642 38.89C43.2242 38.73 42.9742 38.62 42.7142 38.56C42.4542 38.5 42.1942 38.47 41.9342 38.47C41.5142 38.47 41.2009 38.54 40.9942 38.68C40.7876 38.8133 40.6842 38.9867 40.6842 39.2C40.6842 39.38 40.7442 39.52 40.8642 39.62C40.9909 39.7133 41.1509 39.7867 41.3442 39.84C41.5442 39.8933 41.7642 39.94 42.0042 39.98C42.2442 40.0133 42.4842 40.06 42.7242 40.12C42.9642 40.1733 43.1809 40.25 43.3742 40.35C43.5742 40.45 43.7342 40.59 43.8542 40.77C43.9809 40.95 44.0442 41.19 44.0442 41.49C44.0442 41.81 43.9509 42.0867 43.7642 42.32C43.5776 42.5533 43.3142 42.7367 42.9742 42.87C42.6342 42.9967 42.2276 43.06 41.7542 43.06Z" fill="white"/>
<path d="M66.0004 52.5251C66.0004 58.7761 61.1815 63.0154 55.237 63.0154C49.2926 63.0154 44.4736 58.4604 44.4736 52.6631C44.4736 49.7407 44.4931 45.7842 46.1295 42.0348C46.9127 40.2404 48.0614 44.7954 49.3034 44.1053C50.2693 43.001 55.7688 33.6297 58.5488 33.4769C59.8463 33.6025 59.5567 42.045 61.8607 43.6912C62.8266 44.3813 64.1154 41.4827 64.4296 42.5869C65.4233 46.079 66.0004 49.8595 66.0004 52.5251Z" fill="url(#paint0_linear_415_3522)"/>
<path d="M66.0004 52.5251C66.0004 58.7761 61.1815 63.0154 55.237 63.0154C49.2926 63.0154 44.4736 58.4604 44.4736 52.6631C44.4736 49.7407 44.4931 45.7842 46.1295 42.0348C46.9127 40.2404 48.0614 44.7954 49.3034 44.1053C50.2693 43.001 55.7688 33.6297 58.5488 33.4769C59.8463 33.6025 59.5567 42.045 61.8607 43.6912C62.8266 44.3813 64.1154 41.4827 64.4296 42.5869C65.4233 46.079 66.0004 49.8595 66.0004 52.5251Z" fill="url(#paint1_linear_415_3522)" fill-opacity="0.2"/>
<path fill-rule="evenodd" clip-rule="evenodd" d="M61.4725 43.3224C61.4725 43.3225 61.4725 43.3226 61.4725 43.3226C60.4728 42.1215 60.0543 39.4593 59.7001 37.2056C59.4151 35.3922 59.1716 33.8432 58.7004 33.5323C59.1719 33.8425 59.4155 35.3919 59.7006 37.2059C60.0548 39.4593 60.4731 42.121 61.4725 43.3224ZM62.5996 39.6399C63.1909 37.1917 63.5044 34.633 63.5044 32C63.5044 14.3269 49.3783 0 31.9529 0C14.5275 0 0.401367 14.3269 0.401367 32C0.401367 49.6731 14.5275 64 31.9529 64C36.6935 64 41.19 62.9396 45.2243 61.04C43.6074 59.2215 42.5058 56.9405 42.1623 54.3818C39.0581 55.8408 35.5993 56.655 31.9529 56.655C18.5271 56.655 7.64338 45.6166 7.64338 32C7.64338 18.3834 18.5271 7.34495 31.9529 7.34495C45.296 7.34495 56.1283 18.248 56.2612 31.7489C56.8202 31.4076 57.5619 31.0665 58.4192 31.0193L58.6004 31.0094L58.7811 31.0269C60.3108 31.1749 60.9757 32.4458 61.1436 32.788C61.3945 33.2992 61.5491 33.8739 61.6554 34.3375C61.8232 35.0702 61.9694 36.0012 62.108 36.8844L62.108 36.8845C62.1471 37.1337 62.1856 37.3791 62.2239 37.6151C62.3411 38.3388 62.4621 39.0231 62.5996 39.6399Z" fill="url(#paint2_linear_415_3522)"/>
<path fill-rule="evenodd" clip-rule="evenodd" d="M61.4725 43.3224C61.4725 43.3225 61.4725 43.3226 61.4725 43.3226C60.4728 42.1215 60.0543 39.4593 59.7001 37.2056C59.4151 35.3922 59.1716 33.8432 58.7004 33.5323C59.1719 33.8425 59.4155 35.3919 59.7006 37.2059C60.0548 39.4593 60.4731 42.121 61.4725 43.3224ZM62.5996 39.6399C63.1909 37.1917 63.5044 34.633 63.5044 32C63.5044 14.3269 49.3783 0 31.9529 0C14.5275 0 0.401367 14.3269 0.401367 32C0.401367 49.6731 14.5275 64 31.9529 64C36.6935 64 41.19 62.9396 45.2243 61.04C43.6074 59.2215 42.5058 56.9405 42.1623 54.3818C39.0581 55.8408 35.5993 56.655 31.9529 56.655C18.5271 56.655 7.64338 45.6166 7.64338 32C7.64338 18.3834 18.5271 7.34495 31.9529 7.34495C45.296 7.34495 56.1283 18.248 56.2612 31.7489C56.8202 31.4076 57.5619 31.0665 58.4192 31.0193L58.6004 31.0094L58.7811 31.0269C60.3108 31.1749 60.9757 32.4458 61.1436 32.788C61.3945 33.2992 61.5491 33.8739 61.6554 34.3375C61.8232 35.0702 61.9694 36.0012 62.108 36.8844L62.108 36.8845C62.1471 37.1337 62.1856 37.3791 62.2239 37.6151C62.3411 38.3388 62.4621 39.0231 62.5996 39.6399Z" fill="url(#paint3_linear_415_3522)" fill-opacity="0.2"/>
<defs>
<linearGradient id="paint0_linear_415_3522" x1="55.237" y1="33.4769" x2="55.237" y2="63.0154" gradientUnits="userSpaceOnUse">
<stop stop-color="#F2B731"/>
<stop offset="1" stop-color="#E96821"/>
</linearGradient>
<linearGradient id="paint1_linear_415_3522" x1="45.5776" y1="44.2433" x2="64.8965" y2="44.7951" gradientUnits="userSpaceOnUse">
<stop stop-color="#F1B530"/>
<stop offset="0.173389" stop-color="#C15F1D" stop-opacity="0.4"/>
<stop offset="0.487829" stop-color="#EC9E2B"/>
<stop offset="0.656892" stop-color="#DB8E27" stop-opacity="0.851635"/>
<stop offset="0.876705" stop-color="#C5661F" stop-opacity="0.6"/>
<stop offset="0.973562" stop-color="#DE9228"/>
</linearGradient>
<linearGradient id="paint2_linear_415_3522" x1="31.9529" y1="0" x2="31.9529" y2="64" gradientUnits="userSpaceOnUse">
<stop stop-color="#F2B731"/>
<stop offset="1" stop-color="#E96821"/>
</linearGradient>
<linearGradient id="paint3_linear_415_3522" x1="3.63742" y1="23.3271" x2="60.2301" y2="25.5141" gradientUnits="userSpaceOnUse">
<stop stop-color="#F1B530"/>
<stop offset="0.173389" stop-color="#C15F1D" stop-opacity="0.4"/>
<stop offset="0.487829" stop-color="#EC9E2B"/>
<stop offset="0.656892" stop-color="#DB8E27" stop-opacity="0.851635"/>
<stop offset="0.876705" stop-color="#C5661F" stop-opacity="0.6"/>
<stop offset="0.973562" stop-color="#DE9228"/>
</linearGradient>
</defs>
</svg>
